<?xml version="1.0" encoding="UTF-8"?>
<svg xmlns="http://www.w3.org/2000/svg" xmlns:xlink="http://www.w3.org/1999/xlink" width="20pt" height="13pt" viewBox="0 0 20 13" version="1.1">
<defs>
<clipPath id="clip1">
  <path d="M -3.960938 0 L 10 3.957031 L 10 9.042969 L -3.960938 13 Z M 23.960938 0 L 10 0 L 10 3.957031 Z M 23.960938 13 L 10 13 L 10 9.042969 Z M 23.960938 13 "/>
</clipPath>
</defs>
<g id="surface1">
<rect x="0" y="0" width="20" height="13" style="fill:rgb(0%,14.117647%,49.019608%);fill-opacity:1;stroke:none;"/>
<path style="fill:none;stroke-width:5;stroke-linecap:butt;stroke-linejoin:miter;stroke:rgb(100%,100%,100%);stroke-opacity:1;stroke-miterlimit:4;" d="M -9.50625 0 L 24 9.131611 L 57.50625 0 M -9.50625 30 L 24 20.868389 L 57.50625 30 " transform="matrix(0.416667,0,0,0.433333,0,0)"/>
<g clip-path="url(#clip1)" clip-rule="nonzero">
<path style="fill:none;stroke-width:4;stroke-linecap:butt;stroke-linejoin:miter;stroke:rgb(81.176471%,7.843137%,16.862745%);stroke-opacity:1;stroke-miterlimit:4;" d="M -9.50625 0 L 24 9.131611 L 57.50625 0 M -9.50625 30 L 24 20.868389 L 57.50625 30 " transform="matrix(0.416667,0,0,0.433333,0,0)"/>
</g>
<path style="fill-rule:nonzero;fill:rgb(0%,0%,0%);fill-opacity:1;stroke-width:9;stroke-linecap:butt;stroke-linejoin:miter;stroke:rgb(100%,100%,100%);stroke-opacity:1;stroke-miterlimit:4;" d="M 24 0 L 24 30 M 0 15 L 48 15 " transform="matrix(0.416667,0,0,0.433333,0,0)"/>
<path style="fill-rule:nonzero;fill:rgb(0%,0%,0%);fill-opacity:1;stroke-width:6;stroke-linecap:butt;stroke-linejoin:miter;stroke:rgb(81.176471%,7.843137%,16.862745%);stroke-opacity:1;stroke-miterlimit:4;" d="M 24 0 L 24 30 M 0 15 L 48 15 " transform="matrix(0.416667,0,0,0.433333,0,0)"/>
</g>
</svg>
