<?xml version="1.0" encoding="UTF-8"?>
<svg xmlns="http://www.w3.org/2000/svg" xmlns:xlink="http://www.w3.org/1999/xlink" width="15pt" height="15pt" viewBox="0 0 15 15" version="1.1">
<defs>
<clipPath id="clip1">
  <path d="M 0.285156 0.261719 L 14.628906 0.261719 L 14.628906 14.605469 L 0.285156 14.605469 Z M 0.285156 0.261719 "/>
</clipPath>
<filter id="alpha" filterUnits="objectBoundingBox" x="0%" y="0%" width="100%" height="100%">
  <feColorMatrix type="matrix" in="SourceGraphic" values="0 0 0 0 1 0 0 0 0 1 0 0 0 0 1 0 0 0 1 0"/>
</filter>
<mask id="mask0">
  <g filter="url(#alpha)">
<rect x="0" y="0" width="15" height="15" style="fill:rgb(0%,0%,0%);fill-opacity:0.898039;stroke:none;"/>
  </g>
</mask>
<clipPath id="clip2">
  <rect x="0" y="0" width="15" height="15"/>
</clipPath>
<g id="surface5" clip-path="url(#clip2)">
<path style=" stroke:none;fill-rule:nonzero;fill:rgb(22.745098%,35.294118%,59.607843%);fill-opacity:1;" d="M 14.628906 12.425781 C 14.628906 13.628906 13.652344 14.605469 12.449219 14.605469 L 2.464844 14.605469 C 1.257812 14.605469 0.285156 13.628906 0.285156 12.425781 L 0.285156 2.441406 C 0.285156 1.238281 1.257812 0.261719 2.464844 0.261719 L 12.449219 0.261719 C 13.652344 0.261719 14.628906 1.238281 14.628906 2.441406 Z M 14.628906 12.425781 "/>
</g>
</defs>
<g id="surface1">
<g clip-path="url(#clip1)" clip-rule="nonzero">
<use xlink:href="#surface5" mask="url(#mask0)"/>
</g>
<path style=" stroke:none;fill-rule:nonzero;fill:rgb(100%,93.333333%,84.313725%);fill-opacity:1;" d="M 11.285156 8.546875 L 11.519531 6.75 L 9.738281 6.75 L 9.738281 5.601562 C 9.738281 5.082031 9.882812 4.726562 10.628906 4.726562 L 11.582031 4.726562 L 11.582031 3.117188 C 11.417969 3.09375 10.851562 3.046875 10.191406 3.046875 C 8.820312 3.046875 7.878906 3.882812 7.878906 5.421875 L 7.878906 6.75 L 6.328125 6.75 L 6.328125 8.546875 L 7.878906 8.546875 L 7.878906 13.164062 L 9.738281 13.164062 L 9.738281 8.546875 Z M 11.285156 8.546875 "/>
</g>
</svg>
