<?xml version="1.0" encoding="UTF-8"?>
<svg xmlns="http://www.w3.org/2000/svg" xmlns:xlink="http://www.w3.org/1999/xlink" width="15pt" height="15pt" viewBox="0 0 15 15" version="1.1">
<g id="surface1">
<path style=" stroke:none;fill-rule:nonzero;fill:rgb(0%,0%,0%);fill-opacity:1;" d="M 7.5 0 C 3.359375 0 0 3.359375 0 7.5 C 0 10.8125 2.148438 13.625 5.128906 14.617188 C 5.503906 14.6875 5.625 14.453125 5.625 14.257812 L 5.625 12.859375 C 3.539062 13.3125 3.105469 11.976562 3.105469 11.976562 C 2.761719 11.109375 2.269531 10.878906 2.269531 10.878906 C 1.589844 10.410156 2.324219 10.421875 2.324219 10.421875 C 3.078125 10.472656 3.472656 11.195312 3.472656 11.195312 C 4.140625 12.339844 5.226562 12.011719 5.65625 11.816406 C 5.722656 11.332031 5.917969 11.003906 6.132812 10.816406 C 4.464844 10.625 2.714844 9.980469 2.714844 7.109375 C 2.714844 6.289062 3.007812 5.621094 3.488281 5.09375 C 3.410156 4.90625 3.152344 4.144531 3.558594 3.109375 C 3.558594 3.109375 4.191406 2.910156 5.625 3.878906 C 6.222656 3.714844 6.863281 3.628906 7.5 3.625 C 8.136719 3.628906 8.78125 3.714844 9.378906 3.878906 C 10.8125 2.910156 11.4375 3.109375 11.4375 3.109375 C 11.847656 4.144531 11.589844 4.90625 11.511719 5.09375 C 11.996094 5.621094 12.285156 6.289062 12.285156 7.109375 C 12.285156 9.988281 10.53125 10.625 8.859375 10.808594 C 9.128906 11.042969 9.375 11.5 9.375 12.199219 L 9.375 14.257812 C 9.375 14.457031 9.496094 14.691406 9.875 14.617188 C 12.855469 13.625 15 10.8125 15 7.5 C 15 3.359375 11.640625 0 7.5 0 Z M 7.5 0 "/>
</g>
</svg>
