<?xml version="1.0" encoding="UTF-8"?>
<svg xmlns="http://www.w3.org/2000/svg" xmlns:xlink="http://www.w3.org/1999/xlink" width="15pt" height="15pt" viewBox="0 0 15 15" version="1.1">
<defs>
<radialGradient id="radial0" gradientUnits="userSpaceOnUse" cx="158.429" cy="578.088" fx="158.429" fy="578.088" r="65" gradientTransform="matrix(0,-0.225225,0.209534,0,-117.090682,51.705)">
<stop offset="0" style="stop-color:rgb(100%,86.666667%,33.333333%);stop-opacity:1;"/>
<stop offset="0.1" style="stop-color:rgb(100%,86.666667%,33.333333%);stop-opacity:1;"/>
<stop offset="0.5" style="stop-color:rgb(100%,32.941176%,24.313725%);stop-opacity:1;"/>
<stop offset="1" style="stop-color:rgb(78.431373%,21.568627%,67.058824%);stop-opacity:1;"/>
</radialGradient>
<radialGradient id="radial1" gradientUnits="userSpaceOnUse" cx="147.694" cy="473.455" fx="147.694" fy="473.455" r="65" gradientTransform="matrix(0.0197659,0.0987182,-0.407023,0.0814977,187.426364,-51.987841)">
<stop offset="0" style="stop-color:rgb(21.568627%,44.313725%,78.431373%);stop-opacity:1;"/>
<stop offset="0.128" style="stop-color:rgb(21.568627%,44.313725%,78.431373%);stop-opacity:1;"/>
<stop offset="1" style="stop-color:rgb(40%,0%,100%);stop-opacity:0;"/>
</radialGradient>
</defs>
<g id="surface1">
<path style=" stroke:none;fill-rule:nonzero;fill:url(#radial0);" d="M 7.503906 0.113281 C 4.417969 0.113281 3.515625 0.117188 3.34375 0.132812 C 2.710938 0.183594 2.316406 0.285156 1.886719 0.496094 C 1.554688 0.660156 1.292969 0.851562 1.039062 1.117188 C 0.570312 1.605469 0.285156 2.203125 0.183594 2.914062 C 0.132812 3.261719 0.117188 3.332031 0.113281 5.097656 C 0.113281 5.683594 0.113281 6.457031 0.113281 7.496094 C 0.113281 10.578125 0.117188 11.480469 0.132812 11.65625 C 0.183594 12.269531 0.28125 12.65625 0.484375 13.082031 C 0.875 13.894531 1.621094 14.503906 2.5 14.730469 C 2.804688 14.808594 3.144531 14.851562 3.574219 14.871094 C 3.757812 14.878906 5.621094 14.886719 7.488281 14.886719 C 9.355469 14.886719 11.21875 14.882812 11.398438 14.875 C 11.898438 14.851562 12.1875 14.8125 12.507812 14.726562 C 13.394531 14.5 14.128906 13.898438 14.527344 13.078125 C 14.726562 12.664062 14.828125 12.261719 14.875 11.675781 C 14.886719 11.550781 14.890625 9.519531 14.890625 7.496094 C 14.890625 5.46875 14.882812 3.441406 14.875 3.316406 C 14.828125 2.722656 14.726562 2.324219 14.519531 1.902344 C 14.347656 1.554688 14.160156 1.296875 13.886719 1.035156 C 13.398438 0.566406 12.800781 0.285156 12.089844 0.179688 C 11.742188 0.132812 11.675781 0.117188 9.910156 0.113281 Z M 7.503906 0.113281 "/>
<path style=" stroke:none;fill-rule:nonzero;fill:url(#radial1);" d="M 7.503906 0.113281 C 4.417969 0.113281 3.515625 0.117188 3.34375 0.132812 C 2.710938 0.183594 2.316406 0.285156 1.886719 0.496094 C 1.554688 0.660156 1.292969 0.851562 1.039062 1.117188 C 0.570312 1.605469 0.285156 2.203125 0.183594 2.914062 C 0.132812 3.261719 0.117188 3.332031 0.113281 5.097656 C 0.113281 5.683594 0.113281 6.457031 0.113281 7.496094 C 0.113281 10.578125 0.117188 11.480469 0.132812 11.65625 C 0.183594 12.269531 0.28125 12.65625 0.484375 13.082031 C 0.875 13.894531 1.621094 14.503906 2.5 14.730469 C 2.804688 14.808594 3.144531 14.851562 3.574219 14.871094 C 3.757812 14.878906 5.621094 14.886719 7.488281 14.886719 C 9.355469 14.886719 11.21875 14.882812 11.398438 14.875 C 11.898438 14.851562 12.1875 14.8125 12.507812 14.726562 C 13.394531 14.5 14.128906 13.898438 14.527344 13.078125 C 14.726562 12.664062 14.828125 12.261719 14.875 11.675781 C 14.886719 11.550781 14.890625 9.519531 14.890625 7.496094 C 14.890625 5.46875 14.882812 3.441406 14.875 3.316406 C 14.828125 2.722656 14.726562 2.324219 14.519531 1.902344 C 14.347656 1.554688 14.160156 1.296875 13.886719 1.035156 C 13.398438 0.566406 12.800781 0.285156 12.089844 0.179688 C 11.742188 0.132812 11.675781 0.117188 9.910156 0.113281 Z M 7.503906 0.113281 "/>
<path style=" stroke:none;fill-rule:nonzero;fill:rgb(100%,100%,100%);fill-opacity:1;" d="M 7.5 2.046875 C 6.019531 2.046875 5.832031 2.050781 5.25 2.078125 C 4.671875 2.105469 4.273438 2.195312 3.925781 2.332031 C 3.570312 2.472656 3.265625 2.65625 2.960938 2.960938 C 2.65625 3.265625 2.472656 3.566406 2.332031 3.925781 C 2.195312 4.273438 2.105469 4.671875 2.078125 5.25 C 2.050781 5.832031 2.046875 6.019531 2.046875 7.5 C 2.046875 8.980469 2.050781 9.167969 2.078125 9.75 C 2.105469 10.328125 2.195312 10.726562 2.332031 11.074219 C 2.472656 11.429688 2.65625 11.734375 2.960938 12.039062 C 3.265625 12.34375 3.566406 12.527344 3.925781 12.667969 C 4.273438 12.804688 4.671875 12.894531 5.25 12.921875 C 5.832031 12.949219 6.019531 12.953125 7.5 12.953125 C 8.980469 12.953125 9.167969 12.949219 9.75 12.921875 C 10.328125 12.894531 10.726562 12.804688 11.074219 12.667969 C 11.429688 12.527344 11.734375 12.34375 12.039062 12.039062 C 12.34375 11.734375 12.527344 11.429688 12.667969 11.074219 C 12.800781 10.726562 12.894531 10.328125 12.921875 9.75 C 12.949219 9.167969 12.953125 8.980469 12.953125 7.5 C 12.953125 6.019531 12.949219 5.832031 12.921875 5.25 C 12.894531 4.671875 12.800781 4.273438 12.667969 3.925781 C 12.527344 3.566406 12.34375 3.265625 12.039062 2.960938 C 11.734375 2.65625 11.433594 2.472656 11.074219 2.332031 C 10.726562 2.195312 10.328125 2.105469 9.746094 2.078125 C 9.164062 2.050781 8.980469 2.046875 7.5 2.046875 Z M 7.011719 3.027344 C 7.15625 3.027344 7.320312 3.027344 7.5 3.027344 C 8.957031 3.027344 9.128906 3.035156 9.703125 3.058594 C 10.238281 3.085938 10.523438 3.171875 10.71875 3.246094 C 10.972656 3.347656 11.152344 3.464844 11.34375 3.65625 C 11.535156 3.847656 11.652344 4.027344 11.753906 4.28125 C 11.828125 4.476562 11.914062 4.761719 11.941406 5.296875 C 11.964844 5.871094 11.972656 6.042969 11.972656 7.5 C 11.972656 8.953125 11.964844 9.128906 11.941406 9.703125 C 11.914062 10.234375 11.828125 10.523438 11.753906 10.714844 C 11.652344 10.96875 11.535156 11.152344 11.34375 11.339844 C 11.152344 11.53125 10.972656 11.648438 10.71875 11.75 C 10.523438 11.824219 10.238281 11.914062 9.703125 11.9375 C 9.128906 11.964844 8.957031 11.96875 7.5 11.96875 C 6.042969 11.96875 5.871094 11.964844 5.296875 11.9375 C 4.765625 11.914062 4.476562 11.824219 4.285156 11.75 C 4.027344 11.648438 3.847656 11.53125 3.65625 11.339844 C 3.464844 11.148438 3.347656 10.96875 3.25 10.714844 C 3.171875 10.523438 3.085938 10.234375 3.058594 9.703125 C 3.035156 9.125 3.027344 8.953125 3.027344 7.496094 C 3.027344 6.039062 3.035156 5.867188 3.058594 5.292969 C 3.085938 4.761719 3.171875 4.472656 3.25 4.28125 C 3.347656 4.027344 3.464844 3.84375 3.65625 3.652344 C 3.847656 3.464844 4.027344 3.34375 4.285156 3.246094 C 4.476562 3.171875 4.765625 3.082031 5.296875 3.058594 C 5.800781 3.035156 5.996094 3.027344 7.011719 3.027344 Z M 10.410156 3.933594 C 10.050781 3.933594 9.757812 4.226562 9.757812 4.589844 C 9.757812 4.949219 10.050781 5.242188 10.410156 5.242188 C 10.773438 5.242188 11.066406 4.949219 11.066406 4.589844 C 11.066406 4.226562 10.773438 3.933594 10.410156 3.933594 Z M 7.5 4.699219 C 5.953125 4.699219 4.699219 5.953125 4.699219 7.5 C 4.699219 9.046875 5.953125 10.300781 7.5 10.300781 C 9.046875 10.300781 10.300781 9.046875 10.300781 7.5 C 10.300781 5.953125 9.046875 4.699219 7.5 4.699219 Z M 7.5 5.683594 C 8.503906 5.683594 9.320312 6.496094 9.320312 7.5 C 9.320312 8.503906 8.503906 9.316406 7.5 9.316406 C 6.496094 9.316406 5.683594 8.503906 5.683594 7.5 C 5.683594 6.496094 6.496094 5.683594 7.5 5.683594 Z M 7.5 5.683594 "/>
</g>
</svg>
