<?xml version="1.0" encoding="UTF-8"?>
<svg xmlns="http://www.w3.org/2000/svg" xmlns:xlink="http://www.w3.org/1999/xlink" width="15pt" height="15pt" viewBox="0 0 15 15" version="1.1">
<g id="surface1">
<path style=" stroke:none;fill-rule:evenodd;fill:rgb(0%,46.666667%,70.980392%);fill-opacity:1;" d="M 5.359375 4.820312 L 8.320312 4.820312 L 8.320312 6.339844 L 8.363281 6.339844 C 8.777344 5.601562 9.785156 4.820312 11.292969 4.820312 C 14.421875 4.820312 15 6.769531 15 9.300781 L 15 14.464844 L 11.910156 14.464844 L 11.910156 9.886719 C 11.910156 8.796875 11.886719 7.394531 10.300781 7.394531 C 8.691406 7.394531 8.445312 8.582031 8.445312 9.808594 L 8.445312 14.464844 L 5.359375 14.464844 Z M 3.214844 2.144531 C 3.214844 3.03125 2.496094 3.75 1.609375 3.75 C 0.71875 3.75 0 3.03125 0 2.144531 C 0 1.253906 0.71875 0.535156 1.609375 0.535156 C 2.496094 0.535156 3.214844 1.253906 3.214844 2.144531 Z M 0 4.820312 L 3.214844 4.820312 L 3.214844 14.464844 L 0 14.464844 Z M 0 4.820312 "/>
</g>
</svg>
