<?xml version="1.0" encoding="UTF-8"?>
<svg xmlns="http://www.w3.org/2000/svg" xmlns:xlink="http://www.w3.org/1999/xlink" width="30pt" height="30pt" viewBox="0 0 30 30" version="1.1">
<g id="surface1">
<path style=" stroke:none;fill-rule:nonzero;fill:rgb(0%,0%,0%);fill-opacity:1;" d="M 14.621094 0.0351562 C 14.292969 0.0976562 13.96875 0.246094 13.710938 0.453125 C 13.640625 0.507812 13.144531 0.976562 12.609375 1.492188 C 12.074219 2.007812 9.171875 4.785156 6.164062 7.671875 C 3.15625 10.554688 0.617188 13 0.523438 13.105469 C 0.332031 13.324219 0.171875 13.613281 0.078125 13.910156 C 0.0195312 14.101562 0.015625 14.15625 0.015625 14.472656 C 0.015625 14.785156 0.0195312 14.84375 0.078125 15.03125 C 0.296875 15.75 0.789062 16.242188 1.515625 16.46875 L 1.722656 16.535156 L 5.171875 16.542969 L 8.625 16.546875 L 8.628906 22.4375 L 8.636719 28.324219 L 8.703125 28.523438 C 8.96875 29.324219 9.601562 29.863281 10.398438 29.976562 C 10.53125 29.996094 11.871094 30 15.117188 29.996094 C 19.949219 29.984375 19.65625 29.992188 19.980469 29.886719 C 20.523438 29.710938 21.023438 29.230469 21.234375 28.683594 C 21.382812 28.296875 21.375 28.699219 21.375 22.34375 L 21.375 16.546875 L 24.828125 16.542969 L 28.277344 16.535156 L 28.484375 16.46875 C 29.207031 16.246094 29.703125 15.746094 29.921875 15.035156 C 29.980469 14.84375 29.984375 14.789062 29.984375 14.472656 C 29.984375 14.160156 29.980469 14.101562 29.921875 13.914062 C 29.816406 13.566406 29.644531 13.269531 29.410156 13.027344 C 29.339844 12.957031 27.613281 11.292969 25.570312 9.335938 C 23.527344 7.378906 20.632812 4.601562 19.136719 3.167969 C 17.640625 1.730469 16.355469 0.507812 16.277344 0.441406 C 16.09375 0.296875 15.765625 0.132812 15.527344 0.0664062 C 15.277344 0.00390625 14.863281 -0.0117188 14.621094 0.0351562 Z M 14.621094 0.0351562 "/>
</g>
</svg>
