<?xml version="1.0" encoding="UTF-8"?>
<svg xmlns="http://www.w3.org/2000/svg" xmlns:xlink="http://www.w3.org/1999/xlink" width="13pt" height="18pt" viewBox="0 0 13 18" version="1.1">
<g id="surface1">
<path style=" stroke:none;fill-rule:nonzero;fill:rgb(0%,0%,0%);fill-opacity:1;" d="M 2.597656 0.0351562 C 3.394531 0.0273438 4.191406 0.03125 4.988281 0.03125 C 4.988281 0.277344 4.992188 0.523438 4.984375 0.773438 C 4.433594 0.769531 3.878906 0.773438 3.328125 0.773438 C 3.324219 1.132812 3.316406 1.492188 3.320312 1.847656 C 3.875 1.851562 4.429688 1.855469 4.984375 1.855469 C 4.988281 2.058594 4.988281 2.261719 4.980469 2.464844 C 4.1875 2.457031 3.390625 2.460938 2.597656 2.460938 C 2.597656 1.652344 2.601562 0.84375 2.597656 0.0351562 Z M 2.597656 0.0351562 "/>
<path style=" stroke:none;fill-rule:nonzero;fill:rgb(0%,0%,0%);fill-opacity:1;" d="M 5.273438 0.0351562 C 6.078125 0.03125 6.886719 0.0273438 7.695312 0.0351562 C 7.691406 0.269531 7.691406 0.5 7.691406 0.734375 C 7.105469 0.730469 6.519531 0.734375 5.929688 0.742188 C 5.929688 0.832031 5.929688 0.925781 5.929688 1.015625 C 6.515625 1.027344 7.105469 1.027344 7.691406 1.03125 C 7.691406 1.507812 7.691406 1.984375 7.695312 2.460938 C 6.886719 2.460938 6.078125 2.460938 5.269531 2.464844 C 5.265625 2.273438 5.265625 2.078125 5.273438 1.886719 C 5.832031 1.886719 6.390625 1.890625 6.953125 1.882812 C 6.957031 1.761719 6.957031 1.636719 6.957031 1.511719 C 6.394531 1.511719 5.832031 1.511719 5.269531 1.507812 C 5.269531 1.019531 5.269531 0.523438 5.273438 0.0351562 Z M 5.273438 0.0351562 "/>
<path style=" stroke:none;fill-rule:nonzero;fill:rgb(0%,0%,0%);fill-opacity:1;" d="M 7.964844 0.0390625 C 8.769531 0.0390625 9.574219 0.0390625 10.382812 0.0390625 C 10.386719 0.273438 10.386719 0.503906 10.382812 0.738281 C 9.789062 0.738281 9.199219 0.742188 8.609375 0.742188 C 8.613281 0.839844 8.613281 0.933594 8.621094 1.03125 C 9.207031 1.027344 9.792969 1.035156 10.378906 1.039062 C 10.382812 1.515625 10.386719 1.992188 10.382812 2.464844 C 9.574219 2.464844 8.765625 2.464844 7.957031 2.46875 C 7.953125 2.277344 7.953125 2.082031 7.960938 1.890625 C 8.519531 1.894531 9.078125 1.894531 9.636719 1.890625 C 9.636719 1.765625 9.640625 1.640625 9.640625 1.515625 C 9.078125 1.519531 8.519531 1.519531 7.957031 1.515625 C 7.957031 1.023438 7.960938 0.53125 7.964844 0.0390625 Z M 7.964844 0.0390625 "/>
<path style=" stroke:none;fill-rule:nonzero;fill:rgb(0.392157%,43.921569%,72.941176%);fill-opacity:1;" d="M 0 3.46875 C 4.324219 3.46875 8.648438 3.464844 12.976562 3.46875 C 12.738281 6.125 12.503906 8.78125 12.253906 11.4375 C 12.109375 13.132812 11.957031 14.832031 11.796875 16.527344 C 10.871094 16.769531 9.957031 17.046875 9.035156 17.289062 C 8.1875 17.535156 7.335938 17.757812 6.488281 18 L 6.460938 18 C 5.65625 17.761719 4.839844 17.554688 4.035156 17.316406 C 3.082031 17.0625 2.136719 16.78125 1.183594 16.527344 C 1.058594 15.257812 0.949219 13.984375 0.839844 12.710938 C 0.628906 10.363281 0.402344 8.011719 0.203125 5.660156 C 0.132812 4.953125 0.0820312 4.242188 0 3.539062 L 0 3.46875 M 6.507812 4.515625 C 6.5 5.027344 6.515625 5.535156 6.5 6.046875 C 5.015625 6.042969 3.53125 6.046875 2.046875 6.046875 C 2.074219 6.542969 2.140625 7.035156 2.207031 7.527344 C 3.589844 7.574219 4.972656 7.523438 6.351562 7.566406 C 5.144531 8.101562 3.921875 8.605469 2.707031 9.128906 C 2.605469 9.171875 2.492188 9.207031 2.402344 9.273438 C 2.410156 9.820312 2.5 10.359375 2.539062 10.902344 C 3.273438 10.898438 4.011719 10.886719 4.746094 10.886719 C 5.335938 10.882812 5.925781 10.894531 6.515625 10.882812 C 6.488281 11.777344 6.523438 12.675781 6.496094 13.570312 C 6.097656 13.511719 5.707031 13.421875 5.3125 13.355469 C 5 13.285156 4.679688 13.25 4.375 13.164062 C 4.332031 12.734375 4.300781 12.304688 4.261719 11.875 C 4.171875 11.847656 4.078125 11.847656 3.988281 11.847656 C 3.539062 11.851562 3.09375 11.847656 2.648438 11.851562 C 2.691406 12.679688 2.765625 13.503906 2.894531 14.324219 C 3.335938 14.4375 3.777344 14.546875 4.214844 14.664062 C 4.886719 14.84375 5.566406 14.996094 6.242188 15.171875 C 6.320312 15.191406 6.402344 15.21875 6.484375 15.214844 C 6.53125 15.757812 6.496094 16.304688 6.503906 16.847656 C 6.660156 16.824219 6.8125 16.785156 6.960938 16.738281 C 8.238281 16.398438 9.511719 16.050781 10.785156 15.703125 C 10.847656 15.207031 10.878906 14.710938 10.925781 14.214844 C 11.058594 12.707031 11.195312 11.199219 11.332031 9.691406 C 11.496094 7.964844 11.636719 6.238281 11.800781 4.511719 C 10.035156 4.515625 8.273438 4.507812 6.507812 4.515625 Z M 6.507812 4.515625 "/>
<path style=" stroke:none;fill-rule:nonzero;fill:rgb(16.078431%,66.27451%,87.45098%);fill-opacity:1;" d="M 6.507812 4.515625 C 8.273438 4.507812 10.035156 4.515625 11.800781 4.511719 C 11.636719 6.238281 11.496094 7.964844 11.332031 9.691406 C 11.195312 11.199219 11.058594 12.707031 10.925781 14.214844 C 10.878906 14.710938 10.847656 15.207031 10.785156 15.703125 C 9.511719 16.050781 8.238281 16.398438 6.960938 16.738281 C 6.8125 16.785156 6.660156 16.824219 6.503906 16.847656 C 6.496094 16.304688 6.53125 15.757812 6.484375 15.214844 C 6.496094 15.210938 6.519531 15.207031 6.53125 15.203125 C 7.71875 14.910156 8.894531 14.585938 10.078125 14.28125 C 10.226562 12.625 10.394531 10.96875 10.5 9.308594 C 9.492188 9.3125 8.484375 9.308594 7.480469 9.3125 C 7.332031 9.3125 7.1875 9.3125 7.039062 9.300781 C 7.582031 9.027344 8.152344 8.808594 8.707031 8.5625 C 9.242188 8.324219 9.78125 8.101562 10.316406 7.867188 C 10.417969 7.820312 10.53125 7.78125 10.621094 7.710938 C 10.65625 7.582031 10.652344 7.445312 10.667969 7.3125 C 10.699219 6.894531 10.753906 6.476562 10.773438 6.054688 C 9.347656 6.042969 7.925781 6.054688 6.5 6.046875 C 6.515625 5.535156 6.5 5.027344 6.507812 4.515625 Z M 6.507812 4.515625 "/>
<path style=" stroke:none;fill-rule:nonzero;fill:rgb(16.078431%,66.27451%,87.45098%);fill-opacity:1;" d="M 6.515625 10.882812 C 7.203125 10.871094 7.890625 10.890625 8.578125 10.886719 C 8.542969 11.582031 8.484375 12.273438 8.445312 12.96875 C 8.023438 13.105469 7.597656 13.21875 7.171875 13.347656 C 6.945312 13.414062 6.710938 13.46875 6.496094 13.570312 C 6.523438 12.675781 6.488281 11.777344 6.515625 10.882812 Z M 6.515625 10.882812 "/>
<path style=" stroke:none;fill-rule:nonzero;fill:rgb(81.176471%,81.176471%,81.176471%);fill-opacity:1;" d="M 2.046875 6.046875 C 3.53125 6.046875 5.015625 6.042969 6.5 6.046875 C 6.519531 7.660156 6.492188 9.273438 6.515625 10.882812 C 5.925781 10.894531 5.335938 10.882812 4.746094 10.886719 C 4.011719 10.886719 3.273438 10.898438 2.539062 10.902344 C 2.5 10.359375 2.410156 9.820312 2.402344 9.273438 C 2.492188 9.207031 2.605469 9.171875 2.707031 9.128906 C 3.921875 8.605469 5.144531 8.101562 6.351562 7.566406 C 4.972656 7.523438 3.589844 7.574219 2.207031 7.527344 C 2.140625 7.035156 2.074219 6.542969 2.046875 6.046875 Z M 2.046875 6.046875 "/>
<path style=" stroke:none;fill-rule:nonzero;fill:rgb(81.176471%,81.176471%,81.176471%);fill-opacity:1;" d="M 2.648438 11.851562 C 3.09375 11.847656 3.539062 11.851562 3.988281 11.847656 C 4.078125 11.847656 4.171875 11.847656 4.261719 11.875 C 4.300781 12.304688 4.332031 12.734375 4.375 13.164062 C 4.679688 13.25 5 13.285156 5.3125 13.355469 C 5.707031 13.421875 6.097656 13.511719 6.496094 13.570312 C 6.535156 14.113281 6.46875 14.660156 6.53125 15.203125 C 6.519531 15.207031 6.496094 15.210938 6.484375 15.214844 C 6.402344 15.21875 6.320312 15.191406 6.242188 15.171875 C 5.566406 14.996094 4.886719 14.84375 4.214844 14.664062 C 3.777344 14.546875 3.335938 14.4375 2.894531 14.324219 C 2.765625 13.503906 2.691406 12.679688 2.648438 11.851562 Z M 2.648438 11.851562 "/>
<path style=" stroke:none;fill-rule:nonzero;fill:rgb(100%,100%,100%);fill-opacity:1;" d="M 6.5 6.046875 C 7.925781 6.054688 9.347656 6.042969 10.773438 6.054688 C 10.753906 6.476562 10.699219 6.894531 10.667969 7.3125 C 10.652344 7.445312 10.65625 7.582031 10.621094 7.710938 C 10.53125 7.78125 10.417969 7.820312 10.316406 7.867188 C 9.78125 8.101562 9.242188 8.324219 8.707031 8.5625 C 8.152344 8.808594 7.582031 9.027344 7.039062 9.300781 C 7.1875 9.3125 7.332031 9.3125 7.480469 9.3125 C 8.484375 9.308594 9.492188 9.3125 10.5 9.308594 C 10.394531 10.96875 10.226562 12.625 10.078125 14.28125 C 8.894531 14.585938 7.71875 14.910156 6.53125 15.203125 C 6.46875 14.660156 6.535156 14.113281 6.496094 13.570312 C 6.710938 13.46875 6.945312 13.414062 7.171875 13.347656 C 7.597656 13.21875 8.023438 13.105469 8.445312 12.96875 C 8.484375 12.273438 8.542969 11.582031 8.578125 10.886719 C 7.890625 10.890625 7.203125 10.871094 6.515625 10.882812 C 6.492188 9.273438 6.519531 7.660156 6.5 6.046875 Z M 6.5 6.046875 "/>
</g>
</svg>
