<?xml version="1.0" encoding="UTF-8"?>
<svg xmlns="http://www.w3.org/2000/svg" xmlns:xlink="http://www.w3.org/1999/xlink" width="14pt" height="16pt" viewBox="0 0 14 16" version="1.1">
<g id="surface1">
<path style=" stroke:none;fill-rule:nonzero;fill:rgb(80.784314%,83.137255%,87.843137%);fill-opacity:1;" d="M 4.796875 16 L 14 10.78125 L 13.984375 6.808594 L 13.320312 6.832031 L 13.398438 8.085938 L 4.804688 12.992188 L 2.917969 11.902344 L 9.46875 8.15625 L 9.109375 7.871094 L 2.347656 11.84375 L 2.316406 14.644531 Z M 5.035156 13.28125 L 13.617188 8.386719 L 13.59375 10.640625 L 5 15.550781 Z M 5.035156 13.28125 "/>
<path style=" stroke:none;fill-rule:nonzero;fill:rgb(43.921569%,83.137255%,38.823529%);fill-opacity:1;" d="M 13.953125 5.25 L 4.769531 0 L 1.332031 2.0625 L 2.714844 1.871094 L 11.324219 6.753906 L 11.324219 8.917969 L 4.730469 5.171875 L 4.660156 5.621094 L 11.65625 9.511719 L 13.984375 8.257812 Z M 11.453125 6.414062 L 2.863281 1.535156 L 4.84375 0.421875 L 13.453125 5.304688 Z M 11.453125 6.414062 "/>
<path style=" stroke:none;fill-rule:nonzero;fill:rgb(14.117647%,43.921569%,83.137255%);fill-opacity:1;" d="M 2.53125 1.335938 L 0 2.785156 L 0 13.207031 L 2.332031 14.65625 L 2.332031 14.0625 L 0.398438 12.941406 L 0.398438 3.117188 L 2.332031 4.238281 L 2.332031 11.894531 L 2.664062 11.703125 L 2.664062 4.238281 L 4.59375 3.117188 L 4.59375 10.566406 L 4.929688 10.371094 L 4.957031 2.734375 Z M 2.53125 1.335938 "/>
</g>
</svg>
