<?xml version="1.0" encoding="UTF-8"?>
<svg xmlns="http://www.w3.org/2000/svg" xmlns:xlink="http://www.w3.org/1999/xlink" width="12pt" height="15pt" viewBox="0 0 12 15" version="1.1">
<g id="surface1">
<path style=" stroke:none;fill-rule:nonzero;fill:rgb(16.862745%,66.27451%,46.666667%);fill-opacity:1;" d="M 5.378906 0 L 7.878906 0 L 7.878906 11.234375 C 6.597656 11.472656 5.65625 11.566406 4.636719 11.566406 C 1.585938 11.5625 0 10.226562 0 7.65625 C 0 5.179688 1.683594 3.574219 4.292969 3.574219 C 4.699219 3.574219 5.007812 3.605469 5.378906 3.699219 Z M 5.46875 5.726562 C 5.175781 5.628906 4.933594 5.601562 4.625 5.601562 C 3.363281 5.601562 2.632812 6.355469 2.632812 7.679688 C 2.632812 8.972656 3.332031 9.683594 4.609375 9.683594 C 4.886719 9.683594 5.109375 9.667969 5.46875 9.621094 Z M 5.46875 5.726562 "/>
<path style=" stroke:none;fill-rule:nonzero;fill:rgb(16.862745%,66.27451%,46.666667%);fill-opacity:1;" d="M 11.960938 3.875 L 11.960938 9.5 C 11.960938 11.4375 11.8125 12.371094 11.378906 13.171875 C 10.976562 13.945312 10.441406 14.433594 9.339844 14.96875 L 7.023438 13.898438 C 8.125 13.394531 8.65625 12.953125 9 12.273438 C 9.355469 11.578125 9.46875 10.777344 9.46875 8.664062 L 9.46875 3.875 Z M 9.214844 0 L 11.714844 0 L 11.714844 2.492188 L 9.214844 2.492188 Z M 9.214844 0 "/>
</g>
</svg>
