<?xml version="1.0" encoding="UTF-8"?>
<svg xmlns="http://www.w3.org/2000/svg" xmlns:xlink="http://www.w3.org/1999/xlink" width="15pt" height="15pt" viewBox="0 0 15 15" version="1.1">
<g id="surface1">
<path style=" stroke:none;fill-rule:nonzero;fill:rgb(94.117647%,31.764706%,20%);fill-opacity:1;" d="M 14.335938 6.867188 L 8.132812 0.664062 C 7.777344 0.304688 7.195312 0.304688 6.839844 0.664062 L 5.550781 1.953125 L 7.183594 3.585938 C 7.5625 3.457031 8 3.542969 8.300781 3.847656 C 8.605469 4.152344 8.691406 4.589844 8.558594 4.972656 L 10.136719 6.546875 C 10.515625 6.414062 10.957031 6.5 11.261719 6.804688 C 11.6875 7.230469 11.6875 7.917969 11.261719 8.34375 C 10.835938 8.769531 10.144531 8.769531 9.71875 8.34375 C 9.402344 8.023438 9.320312 7.554688 9.484375 7.160156 L 8.015625 5.691406 L 8.015625 9.558594 C 8.117188 9.609375 8.214844 9.675781 8.300781 9.761719 C 8.726562 10.1875 8.726562 10.878906 8.300781 11.304688 C 7.878906 11.726562 7.1875 11.726562 6.761719 11.304688 C 6.335938 10.878906 6.335938 10.1875 6.761719 9.761719 C 6.867188 9.660156 6.988281 9.578125 7.121094 9.527344 L 7.121094 5.625 C 6.988281 5.570312 6.867188 5.492188 6.761719 5.386719 C 6.441406 5.0625 6.363281 4.589844 6.527344 4.195312 L 4.917969 2.585938 L 0.664062 6.839844 C 0.304688 7.195312 0.304688 7.777344 0.664062 8.132812 L 6.867188 14.335938 C 7.222656 14.695312 7.804688 14.695312 8.160156 14.335938 L 14.335938 8.160156 C 14.695312 7.804688 14.695312 7.222656 14.335938 6.867188 Z M 14.335938 6.867188 "/>
</g>
</svg>
