<?xml version="1.0" encoding="UTF-8"?>
<svg xmlns="http://www.w3.org/2000/svg" xmlns:xlink="http://www.w3.org/1999/xlink" width="15pt" height="15pt" viewBox="0 0 15 15" version="1.1">
<g id="surface1">
<path style=" stroke:none;fill-rule:nonzero;fill:rgb(0%,0%,0%);fill-opacity:1;" d="M 3.175781 0 L 3.851562 0 L 3.851562 0.667969 L 4.46875 0.667969 L 4.46875 0 L 5.144531 0 L 5.144531 2.023438 L 4.46875 2.023438 L 4.46875 1.347656 L 3.855469 1.347656 L 3.855469 2.023438 L 3.175781 2.023438 M 6.035156 0.671875 L 5.441406 0.671875 L 5.441406 0 L 7.304688 0 L 7.304688 0.671875 L 6.710938 0.671875 L 6.710938 2.023438 L 6.035156 2.023438 M 7.601562 0 L 8.308594 0 L 8.742188 0.710938 L 9.175781 0 L 9.882812 0 L 9.882812 2.023438 L 9.207031 2.023438 L 9.207031 1.019531 L 8.734375 1.746094 L 8.265625 1.019531 L 8.265625 2.023438 L 7.601562 2.023438 M 10.214844 0 L 10.890625 0 L 10.890625 1.351562 L 11.84375 1.351562 L 11.84375 2.023438 L 10.214844 2.023438 "/>
<path style=" stroke:none;fill-rule:nonzero;fill:rgb(89.411765%,30.196078%,14.901961%);fill-opacity:1;" d="M 3.152344 13.796875 L 2.1875 2.949219 L 12.8125 2.949219 L 11.847656 13.792969 L 7.492188 15 "/>
<path style=" stroke:none;fill-rule:nonzero;fill:rgb(94.509804%,39.607843%,16.078431%);fill-opacity:1;" d="M 7.5 14.078125 L 7.5 3.835938 L 11.84375 3.835938 L 11.015625 13.09375 "/>
<path style=" stroke:none;fill-rule:nonzero;fill:rgb(92.156863%,92.156863%,92.156863%);fill-opacity:1;" d="M 4.160156 5.164062 L 7.5 5.164062 L 7.5 6.496094 L 5.617188 6.496094 L 5.742188 7.859375 L 7.5 7.859375 L 7.5 9.183594 L 4.523438 9.183594 M 4.582031 9.851562 L 5.917969 9.851562 L 6.011719 10.914062 L 7.5 11.316406 L 7.5 12.703125 L 4.769531 11.941406 "/>
<path style=" stroke:none;fill-rule:nonzero;fill:rgb(100%,100%,100%);fill-opacity:1;" d="M 10.828125 5.164062 L 7.492188 5.164062 L 7.492188 6.496094 L 10.703125 6.496094 M 10.585938 7.859375 L 7.492188 7.859375 L 7.492188 9.1875 L 9.132812 9.1875 L 8.980469 10.914062 L 7.492188 11.3125 L 7.492188 12.695312 L 10.21875 11.941406 "/>
</g>
</svg>
