<?xml version="1.0" encoding="UTF-8"?>
<svg xmlns="http://www.w3.org/2000/svg" xmlns:xlink="http://www.w3.org/1999/xlink" width="15pt" height="13pt" viewBox="0 0 15 13" version="1.1">
<g id="surface1">
<path style=" stroke:none;fill-rule:nonzero;fill:rgb(100%,100%,100%);fill-opacity:1;" d="M 4.519531 13 C 3.71875 13 3.117188 12.757812 2.722656 12.367188 C 2.253906 11.898438 1.992188 11.261719 2 10.597656 L 2 8.796875 C 2 8.375 1.921875 8.070312 1.742188 7.890625 C 1.558594 7.710938 1.289062 7.617188 0.898438 7.617188 L 0.0195312 7.617188 L 0.0195312 5.382812 L 0.894531 5.382812 C 1.289062 5.382812 1.558594 5.289062 1.738281 5.109375 C 1.917969 4.929688 1.996094 4.625 1.996094 4.203125 L 1.996094 2.402344 C 1.988281 1.738281 2.25 1.101562 2.722656 0.632812 C 3.117188 0.238281 3.71875 0 4.519531 0 L 6.203125 0 L 6.203125 2.238281 L 5.578125 2.238281 C 5.15625 2.238281 4.882812 2.28125 4.71875 2.449219 C 4.535156 2.628906 4.476562 2.917969 4.476562 3.414062 L 4.476562 4.988281 C 4.476562 6.21875 3.660156 6.429688 3.371094 6.5 C 3.660156 6.574219 4.476562 6.789062 4.476562 8.011719 L 4.476562 9.582031 C 4.476562 10.082031 4.535156 10.371094 4.71875 10.550781 C 4.882812 10.71875 5.15625 10.761719 5.578125 10.761719 L 6.203125 10.761719 L 6.203125 13 Z M 4.519531 13 "/>
<path style=" stroke:none;fill-rule:nonzero;fill:rgb(100%,100%,100%);fill-opacity:1;" d="M 10.476562 0 C 11.28125 0 11.882812 0.242188 12.277344 0.632812 C 12.746094 1.097656 13.007812 1.738281 13 2.402344 L 13 4.203125 C 13 4.625 13.078125 4.929688 13.257812 5.109375 C 13.4375 5.289062 13.710938 5.382812 14.101562 5.382812 L 14.976562 5.382812 L 14.976562 7.617188 L 14.101562 7.617188 C 13.707031 7.617188 13.4375 7.710938 13.257812 7.890625 C 13.078125 8.070312 13 8.375 13 8.796875 L 13 10.597656 C 13.007812 11.257812 12.746094 11.898438 12.277344 12.363281 C 11.882812 12.757812 11.28125 12.996094 10.476562 12.996094 L 8.792969 12.996094 L 8.792969 10.761719 L 9.636719 10.761719 C 10.054688 10.761719 10.113281 10.71875 10.277344 10.550781 C 10.445312 10.386719 10.519531 10.082031 10.519531 9.585938 L 10.519531 8.007812 C 10.519531 6.785156 11.335938 6.574219 11.625 6.496094 C 11.339844 6.429688 10.523438 6.21875 10.523438 4.988281 L 10.523438 3.414062 C 10.523438 2.917969 10.464844 2.628906 10.28125 2.449219 C 10.101562 2.265625 9.84375 2.238281 9.421875 2.238281 L 8.796875 2.238281 L 8.796875 0 Z M 10.476562 0 "/>
<path style=" stroke:none;fill-rule:nonzero;fill:rgb(7.058824%,66.27451%,31.372549%);fill-opacity:1;" d="M 9.078125 5.828125 C 8.695312 4.132812 7.785156 3.574219 7.6875 3.359375 C 7.605469 3.226562 7.535156 3.085938 7.476562 2.9375 C 7.472656 2.933594 7.472656 2.925781 7.46875 2.917969 C 7.472656 3.058594 7.414062 3.191406 7.308594 3.28125 C 7.089844 3.453125 5.960938 4.398438 5.871094 6.324219 C 5.785156 8.117188 7.167969 9.191406 7.355469 9.328125 L 7.375 9.34375 C 7.429688 9.222656 7.480469 8.871094 7.519531 8.390625 C 7.53125 8.777344 7.585938 9.191406 7.777344 9.28125 L 7.789062 9.273438 C 7.871094 9.214844 7.949219 9.152344 8.023438 9.082031 C 8.492188 8.648438 9.378906 7.578125 9.078125 5.828125 "/>
<path style=" stroke:none;fill-rule:nonzero;fill:rgb(72.156863%,77.254902%,76.078431%);fill-opacity:1;" d="M 7.519531 8.394531 C 7.480469 8.875 7.425781 9.222656 7.371094 9.34375 C 7.371094 9.34375 7.429688 9.761719 7.476562 10.214844 L 7.625 10.214844 C 7.660156 9.902344 7.710938 9.589844 7.777344 9.28125 C 7.585938 9.191406 7.53125 8.777344 7.523438 8.390625 "/>
<path style=" stroke:none;fill-rule:nonzero;fill:rgb(7.45098%,60%,30.980392%);fill-opacity:1;" d="M 9.078125 5.828125 C 8.695312 4.132812 7.785156 3.574219 7.6875 3.359375 C 7.605469 3.226562 7.535156 3.085938 7.476562 2.9375 C 7.566406 3.292969 7.550781 6.128906 7.5625 6.46875 C 7.582031 7.109375 7.570312 7.75 7.519531 8.390625 C 7.53125 8.777344 7.585938 9.191406 7.777344 9.28125 L 7.789062 9.273438 C 7.871094 9.214844 7.949219 9.152344 8.023438 9.082031 L 8.03125 9.074219 C 8.492188 8.652344 9.378906 7.578125 9.078125 5.828125 "/>
</g>
</svg>
