<?xml version="1.0" encoding="UTF-8"?>
<svg xmlns="http://www.w3.org/2000/svg" xmlns:xlink="http://www.w3.org/1999/xlink" width="16pt" height="12pt" viewBox="0 0 16 12" version="1.1">
<defs>
<linearGradient id="linear0" gradientUnits="userSpaceOnUse" x1="-2901.9519" y1="923.573" x2="-2061.249" y2="1420.3311" gradientTransform="matrix(0.00128437,0,0,-0.00103,7.082377,11.722682)">
<stop offset="0" style="stop-color:rgb(56.470588%,61.176471%,66.27451%);stop-opacity:1;"/>
<stop offset="1" style="stop-color:rgb(92.941176%,92.941176%,93.333333%);stop-opacity:1;"/>
</linearGradient>
<linearGradient id="linear1" gradientUnits="userSpaceOnUse" x1="-2882.7" y1="10288.81" x2="-2206.249" y2="10288.81" gradientTransform="matrix(0.00128437,0,0,-0.00103,7.082377,11.722682)">
<stop offset="0" style="stop-color:rgb(57.647059%,62.352941%,67.058824%);stop-opacity:1;"/>
<stop offset="1" style="stop-color:rgb(86.27451%,87.058824%,88.235294%);stop-opacity:1;"/>
</linearGradient>
<radialGradient id="radial0" gradientUnits="userSpaceOnUse" cx="-14217.448" cy="7277.7051" fx="-14217.448" fy="7277.7051" r="898.12" gradientTransform="matrix(-0.00123337,-0.000148574,-0.000374693,0.0019782,-7.044451,-12.188372)">
<stop offset="0" style="stop-color:rgb(93.333333%,20.784314%,17.254902%);stop-opacity:1;"/>
<stop offset="1" style="stop-color:rgb(66.27451%,11.372549%,13.333333%);stop-opacity:1;"/>
</radialGradient>
</defs>
<g id="surface1">
<path style=" stroke:none;fill-rule:nonzero;fill:url(#linear0);" d="M 9.710938 5.578125 L 6.722656 6.359375 L 4.125 7.28125 L 3.398438 7.433594 C 3.214844 7.574219 3.019531 7.71875 2.808594 7.863281 C 2.578125 8.023438 2.367188 8.167969 2.199219 8.273438 C 2.019531 8.386719 1.746094 8.605469 1.609375 8.742188 C 1.402344 8.949219 1.242188 9.167969 1.171875 9.335938 C 1.046875 9.640625 1.109375 9.949219 1.347656 10.234375 C 1.65625 10.59375 2.265625 10.964844 2.980469 11.214844 C 3.34375 11.34375 3.953125 11.507812 4.414062 11.601562 C 5.179688 11.757812 6.660156 11.925781 7.476562 11.949219 C 7.640625 11.957031 7.859375 11.957031 7.871094 11.949219 C 7.886719 11.941406 8.015625 11.746094 8.160156 11.507812 C 8.664062 10.6875 9.023438 9.917969 9.21875 9.261719 C 9.335938 8.863281 9.429688 8.332031 9.492188 7.703125 C 9.507812 7.527344 9.511719 6.941406 9.5 6.742188 C 9.480469 6.414062 9.445312 6.152344 9.386719 5.890625 C 9.378906 5.855469 9.375 5.820312 9.378906 5.816406 C 9.390625 5.8125 9.417969 5.804688 9.785156 5.71875 Z M 9.027344 5.898438 C 9.054688 5.898438 9.128906 6.453125 9.144531 6.804688 C 9.148438 6.878906 9.148438 6.929688 9.144531 6.929688 C 9.125 6.929688 8.761719 6.757812 8.503906 6.625 C 8.277344 6.511719 7.847656 6.285156 7.78125 6.242188 C 7.757812 6.230469 7.757812 6.226562 7.945312 6.175781 C 8.257812 6.089844 9.003906 5.898438 9.027344 5.898438 Z M 7.507812 6.300781 C 7.527344 6.300781 7.578125 6.324219 7.703125 6.386719 C 8.167969 6.621094 8.800781 6.902344 9.070312 6.996094 C 9.15625 7.023438 9.164062 7.015625 8.972656 7.121094 C 8.5625 7.34375 8.046875 7.5625 7.421875 7.785156 C 7.3125 7.828125 7.21875 7.859375 7.214844 7.859375 C 7.210938 7.859375 7.226562 7.8125 7.242188 7.757812 C 7.394531 7.308594 7.480469 6.851562 7.484375 6.484375 C 7.488281 6.304688 7.488281 6.304688 7.507812 6.300781 C 7.503906 6.300781 7.503906 6.300781 7.507812 6.300781 Z M 7.191406 6.398438 C 7.207031 6.40625 7.199219 6.8125 7.179688 6.921875 C 7.140625 7.1875 7.074219 7.433594 6.972656 7.710938 C 6.945312 7.777344 6.925781 7.835938 6.921875 7.835938 C 6.910156 7.847656 6.601562 7.605469 6.5 7.511719 C 6.324219 7.347656 6.1875 7.183594 6.085938 7.023438 C 6.03125 6.945312 5.953125 6.785156 5.957031 6.777344 C 5.996094 6.757812 7.183594 6.390625 7.191406 6.398438 Z M 5.71875 6.863281 C 5.71875 6.863281 5.722656 6.863281 5.722656 6.863281 C 5.726562 6.867188 5.746094 6.898438 5.757812 6.929688 C 5.828125 7.085938 5.992188 7.316406 6.132812 7.464844 C 6.285156 7.628906 6.488281 7.804688 6.652344 7.917969 C 6.707031 7.953125 6.757812 7.988281 6.765625 7.992188 C 6.777344 8.003906 6.78125 8.003906 6.414062 8.113281 C 5.988281 8.246094 5.523438 8.375 4.992188 8.511719 C 4.863281 8.546875 4.734375 8.578125 4.609375 8.613281 C 4.589844 8.617188 4.59375 8.609375 4.652344 8.535156 C 4.917969 8.203125 5.320312 7.554688 5.546875 7.09375 C 5.582031 7.015625 5.621094 6.933594 5.628906 6.917969 C 5.636719 6.890625 5.648438 6.882812 5.679688 6.871094 C 5.695312 6.867188 5.710938 6.863281 5.71875 6.863281 Z M 5.265625 7.011719 C 5.273438 7.015625 5.15625 7.210938 5.042969 7.386719 C 4.824219 7.730469 4.585938 8.066406 4.265625 8.476562 C 4.210938 8.546875 4.160156 8.609375 4.152344 8.617188 C 4.140625 8.628906 4.136719 8.625 4.101562 8.570312 C 4.023438 8.449219 3.960938 8.292969 3.925781 8.152344 C 3.894531 8.007812 3.898438 7.761719 3.9375 7.613281 C 3.96875 7.5 3.964844 7.5 4.035156 7.472656 C 4.320312 7.355469 5.257812 7.003906 5.265625 7.011719 Z M 9.160156 7.140625 L 9.160156 7.214844 C 9.160156 7.617188 9.105469 8.171875 9.027344 8.578125 C 9.011719 8.648438 9 8.703125 9 8.707031 C 9 8.707031 8.933594 8.691406 8.855469 8.675781 C 8.519531 8.589844 8.148438 8.464844 7.820312 8.316406 C 7.597656 8.222656 7.28125 8.0625 7.289062 8.058594 C 7.292969 8.054688 7.386719 8.015625 7.496094 7.96875 C 7.941406 7.785156 8.363281 7.585938 8.734375 7.386719 C 8.871094 7.3125 9.078125 7.195312 9.121094 7.160156 Z M 3.5625 7.675781 C 3.570312 7.675781 3.566406 7.6875 3.554688 7.753906 C 3.546875 7.800781 3.535156 7.886719 3.53125 7.949219 C 3.511719 8.210938 3.566406 8.40625 3.730469 8.675781 C 3.773438 8.75 3.808594 8.8125 3.808594 8.8125 C 3.792969 8.824219 2.296875 9.175781 1.828125 9.277344 C 1.6875 9.308594 1.566406 9.335938 1.558594 9.339844 C 1.542969 9.34375 1.539062 9.339844 1.546875 9.308594 C 1.597656 9.042969 1.851562 8.695312 2.203125 8.402344 C 2.4375 8.207031 2.625 8.09375 2.945312 7.945312 C 3.175781 7.839844 3.53125 7.683594 3.558594 7.675781 C 3.558594 7.675781 3.558594 7.675781 3.5625 7.675781 Z M 7.082031 8.179688 C 7.085938 8.179688 7.140625 8.203125 7.203125 8.230469 C 7.6875 8.457031 8.359375 8.664062 8.933594 8.773438 L 8.984375 8.78125 L 8.914062 8.8125 C 8.613281 8.949219 7.625 9.277344 6.617188 9.578125 C 6.472656 9.621094 6.328125 9.664062 6.300781 9.675781 C 6.273438 9.683594 6.246094 9.6875 6.246094 9.6875 C 6.246094 9.6875 6.289062 9.621094 6.339844 9.542969 C 6.621094 9.121094 6.90625 8.605469 7.050781 8.246094 C 7.070312 8.210938 7.082031 8.183594 7.082031 8.179688 Z M 6.722656 8.273438 C 6.726562 8.277344 6.707031 8.3125 6.683594 8.355469 C 6.488281 8.738281 6.230469 9.15625 5.902344 9.621094 C 5.820312 9.742188 5.75 9.835938 5.746094 9.835938 C 5.746094 9.835938 5.675781 9.804688 5.59375 9.765625 C 5.117188 9.53125 4.691406 9.242188 4.414062 8.960938 L 4.375 8.921875 L 4.578125 8.875 C 5.316406 8.714844 5.941406 8.539062 6.5625 8.328125 C 6.648438 8.296875 6.722656 8.273438 6.722656 8.273438 Z M 8.953125 8.898438 C 8.953125 8.898438 8.957031 8.898438 8.953125 8.898438 C 8.957031 8.941406 8.839844 9.3125 8.746094 9.582031 C 8.667969 9.808594 8.597656 9.984375 8.476562 10.300781 C 8.421875 10.4375 8.375 10.550781 8.371094 10.550781 C 8.367188 10.550781 8.355469 10.550781 8.34375 10.546875 C 7.671875 10.449219 7.070312 10.3125 6.507812 10.132812 C 6.347656 10.082031 6.125 10 6.109375 9.988281 C 6.105469 9.984375 6.242188 9.9375 6.414062 9.875 C 7.4375 9.515625 8.503906 9.105469 8.871094 8.929688 C 8.914062 8.910156 8.945312 8.898438 8.953125 8.898438 Z M 3.804688 9.039062 C 3.808594 9.042969 3.523438 9.375 3.121094 9.824219 C 2.980469 9.984375 2.820312 10.167969 2.757812 10.234375 C 2.695312 10.304688 2.605469 10.414062 2.550781 10.480469 L 2.457031 10.597656 L 2.355469 10.527344 C 2.238281 10.449219 2.027344 10.277344 1.9375 10.183594 C 1.742188 9.988281 1.613281 9.785156 1.558594 9.597656 C 1.535156 9.511719 1.535156 9.46875 1.558594 9.464844 C 1.589844 9.457031 2.195312 9.34375 2.757812 9.238281 C 3.070312 9.179688 3.433594 9.109375 3.566406 9.085938 C 3.695312 9.058594 3.804688 9.039062 3.804688 9.039062 Z M 4.09375 9.128906 L 4.167969 9.195312 C 4.492188 9.484375 4.824219 9.699219 5.226562 9.886719 C 5.296875 9.921875 5.351562 9.949219 5.347656 9.953125 C 5.332031 9.960938 3.953125 10.355469 3.3125 10.53125 C 2.953125 10.632812 2.660156 10.714844 2.65625 10.714844 C 2.652344 10.714844 2.632812 10.703125 2.613281 10.691406 L 2.570312 10.667969 L 2.636719 10.589844 C 2.847656 10.34375 3.113281 10.074219 3.695312 9.515625 Z M 5.894531 10.160156 C 5.898438 10.160156 5.996094 10.1875 6.117188 10.226562 C 6.414062 10.3125 6.644531 10.371094 6.957031 10.433594 C 7.339844 10.511719 7.894531 10.585938 8.222656 10.609375 C 8.273438 10.613281 8.300781 10.617188 8.289062 10.621094 C 8.273438 10.628906 7.941406 10.71875 7.699219 10.777344 C 7.3125 10.875 6.125 11.15625 5.160156 11.378906 C 4.980469 11.421875 4.828125 11.457031 4.820312 11.457031 C 4.796875 11.460938 4.722656 11.445312 4.722656 11.4375 C 4.722656 11.433594 4.777344 11.378906 4.839844 11.316406 C 5.167969 11.003906 5.488281 10.65625 5.757812 10.328125 C 5.832031 10.238281 5.894531 10.164062 5.894531 10.160156 Z M 5.5 10.171875 C 5.5 10.171875 5.339844 10.378906 5.058594 10.734375 C 4.941406 10.882812 4.808594 11.054688 4.761719 11.113281 C 4.714844 11.171875 4.648438 11.261719 4.609375 11.3125 L 4.542969 11.40625 L 4.507812 11.398438 C 4.429688 11.378906 3.855469 11.21875 3.707031 11.171875 C 3.519531 11.109375 3.324219 11.039062 3.179688 10.976562 C 3 10.898438 2.773438 10.78125 2.792969 10.777344 C 2.796875 10.777344 3.105469 10.710938 3.476562 10.628906 C 4.464844 10.414062 5.015625 10.289062 5.375 10.199219 C 5.441406 10.183594 5.496094 10.167969 5.5 10.171875 Z M 8.308594 10.699219 C 8.320312 10.71875 7.953125 11.53125 7.820312 11.789062 C 7.792969 11.847656 7.78125 11.863281 7.765625 11.859375 C 7.726562 11.859375 7.195312 11.796875 6.871094 11.761719 C 6.3125 11.691406 5.367188 11.558594 5.128906 11.515625 L 5.074219 11.507812 L 5.414062 11.445312 C 6.132812 11.316406 6.480469 11.246094 6.835938 11.15625 C 7.277344 11.046875 7.71875 10.914062 8.164062 10.746094 C 8.234375 10.722656 8.292969 10.703125 8.308594 10.699219 Z M 8.308594 10.699219 "/>
<path style=" stroke:none;fill-rule:nonzero;fill:url(#linear1);" d="M 6.632812 -0.00390625 C 6.582031 -0.0078125 5.78125 0.222656 5.261719 0.390625 C 4.566406 0.621094 4.023438 0.835938 3.691406 1.023438 C 3.566406 1.09375 3.410156 1.21875 3.386719 1.269531 C 3.375 1.289062 3.371094 1.308594 3.371094 1.332031 L 3.675781 1.558594 L 4.394531 1.746094 L 6.109375 1.992188 L 8.066406 2.261719 L 8.085938 2.125 C 8.082031 2.125 8.074219 2.125 8.070312 2.125 L 7.8125 2.089844 L 7.757812 2.015625 C 7.492188 1.640625 7.199219 1.171875 7.027344 0.859375 C 6.894531 0.613281 6.769531 0.332031 6.699219 0.128906 C 6.660156 0.00390625 6.65625 0 6.632812 -0.00390625 Z M 6.59375 0.0898438 L 6.597656 0.0898438 C 6.597656 0.0898438 6.609375 0.140625 6.617188 0.199219 C 6.65625 0.453125 6.726562 0.699219 6.835938 0.964844 C 6.921875 1.164062 6.921875 1.152344 6.824219 1.128906 C 6.59375 1.078125 5.5625 0.933594 4.8125 0.851562 C 4.695312 0.839844 4.59375 0.824219 4.59375 0.824219 C 4.585938 0.816406 5.132812 0.585938 5.375 0.496094 C 5.683594 0.382812 6.53125 0.0976562 6.59375 0.0898438 Z M 4.417969 0.898438 L 4.507812 0.921875 C 4.984375 1.054688 6.1875 1.238281 6.851562 1.28125 C 6.925781 1.289062 6.988281 1.292969 6.992188 1.292969 C 6.996094 1.292969 6.929688 1.320312 6.851562 1.351562 C 6.53125 1.480469 6.175781 1.636719 5.933594 1.757812 C 5.863281 1.796875 5.796875 1.824219 5.785156 1.824219 C 5.777344 1.824219 5.730469 1.816406 5.679688 1.8125 L 5.589844 1.800781 L 5.363281 1.625 C 4.96875 1.3125 4.65625 1.074219 4.535156 0.984375 Z M 4.328125 0.957031 L 4.648438 1.273438 C 4.820312 1.449219 4.996094 1.621094 5.035156 1.660156 C 5.074219 1.699219 5.105469 1.730469 5.101562 1.730469 C 5.09375 1.734375 4.644531 1.664062 4.402344 1.621094 C 4.15625 1.578125 4.054688 1.554688 3.90625 1.515625 L 3.78125 1.484375 L 3.78125 1.460938 C 3.78125 1.335938 3.976562 1.15625 4.300781 0.972656 Z M 7.03125 1.390625 C 7.042969 1.390625 7.054688 1.40625 7.082031 1.457031 C 7.15625 1.589844 7.394531 1.957031 7.453125 2.027344 C 7.472656 2.050781 7.503906 2.054688 7.1875 2.011719 C 6.421875 1.910156 6.175781 1.878906 6.175781 1.875 C 6.175781 1.875 6.199219 1.859375 6.226562 1.847656 C 6.464844 1.742188 6.703125 1.609375 6.914062 1.464844 C 6.96875 1.433594 7.015625 1.398438 7.023438 1.394531 C 7.027344 1.390625 7.03125 1.386719 7.03125 1.390625 Z M 7.03125 1.390625 "/>
<path style=" stroke:none;fill-rule:nonzero;fill:url(#radial0);" d="M 3.402344 1.242188 C 3.402344 1.242188 3.351562 1.308594 3.398438 1.402344 C 3.429688 1.460938 3.515625 1.53125 3.609375 1.601562 C 3.609375 1.601562 4.617188 2.386719 4.738281 2.5 C 5.292969 3.015625 5.535156 3.519531 5.558594 4.21875 C 5.570312 4.667969 5.464844 5.0625 5.199219 5.519531 C 4.730469 6.34375 3.738281 7.25 2.210938 8.257812 L 2.433594 8.195312 C 2.578125 8.109375 2.777344 8.015625 3.238281 7.8125 C 4.300781 7.347656 5.496094 6.917969 6.964844 6.476562 C 9.074219 5.839844 12.550781 5.09375 14.527344 4.851562 L 14.730469 4.824219 L 14.699219 4.785156 C 14.519531 4.5625 14.394531 4.421875 14.246094 4.273438 C 13.8125 3.84375 13.289062 3.492188 12.644531 3.203125 C 11.757812 2.808594 10.613281 2.5 9.164062 2.269531 C 8.894531 2.226562 8.292969 2.140625 7.804688 2.082031 C 6.769531 1.953125 6.101562 1.863281 5.367188 1.761719 C 5.101562 1.726562 4.707031 1.671875 4.445312 1.628906 C 4.3125 1.605469 4.050781 1.554688 3.847656 1.5 C 3.6875 1.449219 3.449219 1.398438 3.402344 1.242188 Z M 3.984375 1.695312 C 3.984375 1.695312 4.023438 1.707031 4.070312 1.71875 C 4.15625 1.742188 4.265625 1.769531 4.398438 1.796875 C 4.496094 1.820312 4.59375 1.839844 4.695312 1.859375 C 4.832031 1.886719 4.941406 1.914062 4.945312 1.914062 C 4.960938 1.925781 5.1875 2.511719 5.265625 2.734375 C 5.296875 2.820312 5.316406 2.894531 5.316406 2.894531 C 5.3125 2.894531 5.289062 2.863281 5.257812 2.820312 C 4.996094 2.449219 4.578125 2.070312 4.09375 1.765625 C 4.03125 1.730469 3.984375 1.699219 3.984375 1.695312 Z M 5.09375 1.941406 C 5.105469 1.941406 5.15625 1.949219 5.214844 1.957031 C 5.601562 2.027344 6.289062 2.132812 6.726562 2.191406 C 6.800781 2.203125 6.863281 2.210938 6.863281 2.214844 C 6.863281 2.21875 6.835938 2.230469 6.800781 2.246094 C 6.726562 2.277344 6.425781 2.421875 6.328125 2.472656 C 6.074219 2.609375 5.851562 2.753906 5.6875 2.882812 C 5.621094 2.9375 5.566406 2.980469 5.566406 2.980469 C 5.566406 2.980469 5.550781 2.949219 5.539062 2.910156 C 5.460938 2.660156 5.289062 2.285156 5.136719 2.023438 C 5.113281 1.980469 5.09375 1.945312 5.09375 1.941406 C 5.09375 1.945312 5.09375 1.941406 5.09375 1.941406 Z M 7.046875 2.242188 C 7.0625 2.246094 7.085938 2.304688 7.128906 2.441406 C 7.214844 2.703125 7.25 2.996094 7.238281 3.269531 C 7.234375 3.347656 7.230469 3.417969 7.226562 3.425781 L 7.21875 3.445312 L 7.101562 3.414062 C 6.859375 3.351562 6.464844 3.261719 6.128906 3.183594 C 5.9375 3.140625 5.78125 3.105469 5.78125 3.101562 C 5.78125 3.089844 6.0625 2.867188 6.183594 2.78125 C 6.410156 2.621094 7.027344 2.234375 7.046875 2.242188 Z M 7.203125 2.257812 C 7.210938 2.253906 8.140625 2.382812 8.5625 2.449219 C 8.875 2.496094 9.332031 2.574219 9.359375 2.582031 C 9.371094 2.585938 9.324219 2.605469 9.171875 2.660156 C 8.578125 2.875 8.132812 3.070312 7.695312 3.304688 C 7.578125 3.367188 7.480469 3.417969 7.480469 3.417969 C 7.476562 3.417969 7.476562 3.363281 7.476562 3.300781 C 7.476562 2.957031 7.390625 2.609375 7.230469 2.316406 C 7.214844 2.289062 7.203125 2.261719 7.203125 2.257812 Z M 9.605469 2.640625 C 9.609375 2.644531 9.582031 2.792969 9.554688 2.878906 C 9.472656 3.148438 9.253906 3.546875 8.984375 3.925781 C 8.9375 3.992188 8.894531 4.046875 8.890625 4.046875 C 8.886719 4.050781 8.824219 4.023438 8.753906 3.988281 C 8.492188 3.867188 8.195312 3.75 7.871094 3.640625 C 7.78125 3.609375 7.699219 3.585938 7.699219 3.582031 C 7.683594 3.570312 8.410156 3.1875 8.792969 3 C 9.097656 2.851562 9.59375 2.632812 9.605469 2.640625 Z M 9.773438 2.660156 C 9.796875 2.660156 10.207031 2.75 10.421875 2.800781 C 10.953125 2.929688 11.5625 3.109375 11.957031 3.253906 L 12.121094 3.3125 L 12.007812 3.335938 C 11.035156 3.511719 10.207031 3.71875 9.40625 3.980469 C 9.339844 4.003906 9.28125 4.019531 9.277344 4.019531 C 9.273438 4.019531 9.292969 3.980469 9.324219 3.929688 C 9.566406 3.515625 9.722656 3.089844 9.757812 2.722656 C 9.761719 2.6875 9.769531 2.660156 9.773438 2.660156 Z M 5.683594 3.414062 C 5.691406 3.410156 6.007812 3.46875 6.175781 3.507812 C 6.433594 3.5625 6.980469 3.710938 6.980469 3.722656 C 6.980469 3.722656 6.917969 3.765625 6.84375 3.816406 C 6.550781 4.011719 6.265625 4.222656 5.925781 4.484375 C 5.824219 4.5625 5.738281 4.625 5.734375 4.625 C 5.726562 4.625 5.726562 4.617188 5.726562 4.601562 C 5.78125 4.296875 5.769531 3.90625 5.695312 3.511719 C 5.691406 3.460938 5.683594 3.414062 5.683594 3.414062 Z M 12.277344 3.417969 C 12.28125 3.421875 12.132812 3.609375 12.039062 3.71875 C 11.902344 3.875 11.703125 4.078125 11.257812 4.53125 C 11.019531 4.773438 10.753906 5.042969 10.664062 5.132812 C 10.574219 5.222656 10.5 5.296875 10.496094 5.296875 C 10.496094 5.296875 10.464844 5.265625 10.433594 5.226562 C 10.179688 4.921875 9.878906 4.65625 9.519531 4.417969 C 9.453125 4.371094 9.378906 4.324219 9.351562 4.308594 C 9.328125 4.292969 9.308594 4.277344 9.308594 4.277344 C 9.308594 4.273438 9.691406 4.140625 9.984375 4.046875 C 10.492188 3.878906 11.1875 3.679688 11.710938 3.550781 C 11.984375 3.484375 12.273438 3.414062 12.277344 3.417969 Z M 12.453125 3.457031 C 12.460938 3.453125 12.515625 3.476562 12.582031 3.507812 C 13.128906 3.757812 13.667969 4.082031 14.089844 4.414062 C 14.210938 4.507812 14.507812 4.753906 14.5 4.757812 C 14.5 4.757812 14.398438 4.765625 14.277344 4.773438 C 13.324219 4.828125 12.109375 4.992188 10.941406 5.214844 C 10.859375 5.230469 10.789062 5.242188 10.785156 5.242188 C 10.78125 5.242188 10.871094 5.171875 10.980469 5.089844 C 11.667969 4.558594 11.980469 4.222656 12.351562 3.625 C 12.402344 3.535156 12.449219 3.460938 12.453125 3.457031 C 12.449219 3.457031 12.449219 3.457031 12.453125 3.457031 Z M 7.425781 3.867188 C 7.457031 3.875 7.75 3.984375 7.972656 4.074219 C 8.175781 4.152344 8.480469 4.285156 8.496094 4.296875 C 8.496094 4.296875 8.390625 4.34375 8.257812 4.394531 C 7.832031 4.566406 7.46875 4.726562 7.089844 4.910156 C 6.980469 4.964844 6.890625 5.007812 6.886719 5.007812 C 6.878906 5.007812 6.882812 5 6.941406 4.910156 C 7.144531 4.613281 7.308594 4.257812 7.402344 3.914062 C 7.410156 3.886719 7.417969 3.867188 7.425781 3.867188 Z M 7.132812 3.910156 C 7.140625 3.917969 7.0625 4.140625 7.015625 4.261719 C 6.921875 4.492188 6.765625 4.777344 6.617188 4.996094 C 6.578125 5.046875 6.523438 5.121094 6.496094 5.164062 L 6.4375 5.234375 L 6.3125 5.136719 C 6.167969 5.023438 6.046875 4.953125 5.894531 4.890625 C 5.832031 4.863281 5.785156 4.84375 5.785156 4.839844 C 5.785156 4.824219 6.171875 4.542969 6.464844 4.339844 C 6.679688 4.195312 7.125 3.90625 7.132812 3.910156 Z M 8.925781 4.503906 L 9.039062 4.5625 C 9.289062 4.695312 9.589844 4.871094 9.816406 5.023438 C 9.945312 5.109375 10.191406 5.289062 10.242188 5.332031 L 10.269531 5.355469 L 10.085938 5.394531 C 9.054688 5.625 8.253906 5.832031 7.320312 6.105469 C 7.21875 6.136719 7.128906 6.160156 7.125 6.160156 C 7.109375 6.160156 7.097656 6.171875 7.332031 6 C 7.925781 5.558594 8.453125 5.074219 8.847656 4.601562 Z M 8.453125 4.597656 C 8.460938 4.601562 8.148438 4.949219 7.964844 5.148438 C 7.742188 5.382812 7.351562 5.777344 7.082031 6.035156 C 6.96875 6.140625 6.871094 6.230469 6.867188 6.230469 C 6.859375 6.234375 6.855469 6.207031 6.855469 6.164062 C 6.855469 5.945312 6.785156 5.710938 6.664062 5.511719 C 6.613281 5.429688 6.605469 5.410156 6.617188 5.402344 C 6.660156 5.371094 7.316406 5.070312 7.730469 4.890625 C 8.011719 4.773438 8.449219 4.59375 8.453125 4.597656 Z M 5.601562 5.160156 C 5.609375 5.160156 5.660156 5.179688 5.71875 5.207031 C 5.863281 5.269531 5.992188 5.339844 6.109375 5.414062 C 6.113281 5.417969 6.054688 5.457031 5.976562 5.503906 C 5.761719 5.625 5.4375 5.824219 5.246094 5.945312 C 5.050781 6.070312 5.042969 6.074219 5.066406 6.046875 C 5.214844 5.863281 5.289062 5.761719 5.367188 5.628906 C 5.4375 5.511719 5.507812 5.371094 5.558594 5.25 C 5.574219 5.199219 5.597656 5.160156 5.601562 5.160156 Z M 6.363281 5.636719 C 6.375 5.636719 6.386719 5.652344 6.449219 5.722656 C 6.578125 5.878906 6.675781 6.082031 6.703125 6.25 L 6.707031 6.285156 L 6.398438 6.382812 C 5.84375 6.554688 5.332031 6.722656 4.988281 6.851562 C 4.890625 6.886719 4.722656 6.953125 4.609375 6.996094 C 4.5 7.042969 4.410156 7.074219 4.410156 7.074219 C 4.410156 7.070312 4.480469 7.03125 4.566406 6.980469 C 5.242188 6.585938 5.824219 6.15625 6.261719 5.726562 C 6.3125 5.679688 6.355469 5.636719 6.359375 5.636719 Z M 6.011719 5.707031 C 6.023438 5.710938 5.765625 5.945312 5.589844 6.089844 C 5.152344 6.445312 4.722656 6.722656 4.1875 6.996094 C 4.117188 7.03125 4.058594 7.0625 4.050781 7.066406 C 4.035156 7.070312 4.054688 7.054688 4.289062 6.847656 C 4.441406 6.722656 4.550781 6.613281 4.679688 6.476562 C 4.765625 6.390625 4.78125 6.378906 4.90625 6.304688 C 5.238281 6.113281 6.003906 5.699219 6.011719 5.707031 Z M 6.011719 5.707031 "/>
</g>
</svg>
