<?xml version="1.0" encoding="UTF-8"?>
<svg xmlns="http://www.w3.org/2000/svg" xmlns:xlink="http://www.w3.org/1999/xlink" width="15pt" height="15pt" viewBox="0 0 15 15" version="1.1">
<g id="surface1">
<path style=" stroke:none;fill-rule:evenodd;fill:rgb(34.117647%,49.803922%,63.529412%);fill-opacity:1;" d="M 4.300781 0.824219 C 5.898438 -0.0703125 8.953125 -0.0703125 10.550781 0.824219 C 10.625 0.890625 10.738281 0.921875 10.824219 0.976562 C 11 1.058594 11.144531 1.171875 11.324219 1.25 C 11.394531 1.335938 11.511719 1.378906 11.601562 1.449219 C 11.894531 1.644531 12.144531 1.890625 12.425781 2.101562 C 12.601562 2.28125 12.753906 2.484375 12.949219 2.648438 C 13.058594 2.835938 13.210938 2.972656 13.324219 3.148438 C 13.429688 3.289062 13.503906 3.453125 13.625 3.574219 C 13.671875 3.71875 13.761719 3.820312 13.824219 3.949219 C 13.894531 4.070312 13.941406 4.21875 14.023438 4.324219 C 14.339844 5.066406 14.601562 5.867188 14.675781 6.851562 C 14.691406 6.925781 14.644531 7.066406 14.699219 7.101562 C 14.699219 7.292969 14.699219 7.484375 14.699219 7.675781 C 14.644531 7.710938 14.691406 7.847656 14.675781 7.925781 C 14.601562 8.910156 14.339844 9.707031 14.023438 10.449219 C 13.941406 10.558594 13.894531 10.703125 13.824219 10.824219 C 13.761719 10.953125 13.671875 11.054688 13.625 11.199219 C 13.503906 11.320312 13.429688 11.488281 13.324219 11.625 C 13.210938 11.800781 13.058594 11.941406 12.949219 12.125 C 12.753906 12.289062 12.601562 12.496094 12.425781 12.675781 C 12.144531 12.886719 11.894531 13.128906 11.601562 13.324219 C 11.511719 13.394531 11.394531 13.4375 11.324219 13.523438 C 11.144531 13.601562 11 13.71875 10.824219 13.800781 C 10.738281 13.851562 10.625 13.882812 10.550781 13.949219 C 8.953125 14.847656 5.898438 14.847656 4.300781 13.949219 C 4.226562 13.882812 4.113281 13.851562 4.023438 13.800781 C 3.847656 13.71875 3.703125 13.601562 3.523438 13.523438 C 3.453125 13.4375 3.335938 13.394531 3.25 13.324219 C 2.953125 13.128906 2.707031 12.886719 2.425781 12.675781 C 2.246094 12.496094 2.09375 12.289062 1.898438 12.125 C 1.792969 11.941406 1.640625 11.800781 1.523438 11.625 C 1.421875 11.488281 1.34375 11.320312 1.226562 11.199219 C 1.179688 11.054688 1.085938 10.953125 1.023438 10.824219 C 0.957031 10.703125 0.910156 10.558594 0.824219 10.449219 C 0.507812 9.707031 0.25 8.910156 0.175781 7.925781 C 0.160156 7.847656 0.207031 7.710938 0.148438 7.675781 C 0.148438 7.484375 0.148438 7.292969 0.148438 7.101562 C 0.207031 7.066406 0.160156 6.925781 0.175781 6.851562 C 0.25 5.867188 0.507812 5.066406 0.824219 4.324219 C 0.910156 4.21875 0.957031 4.070312 1.023438 3.949219 C 1.085938 3.820312 1.179688 3.71875 1.226562 3.574219 C 1.34375 3.453125 1.421875 3.289062 1.523438 3.148438 C 1.640625 2.972656 1.792969 2.835938 1.898438 2.648438 C 2.09375 2.484375 2.246094 2.28125 2.425781 2.101562 C 2.707031 1.890625 2.953125 1.644531 3.25 1.449219 C 3.335938 1.378906 3.453125 1.335938 3.523438 1.25 C 3.703125 1.171875 3.847656 1.058594 4.023438 0.976562 C 4.113281 0.921875 4.226562 0.890625 4.300781 0.824219 Z M 7 0.351562 C 5.589844 0.433594 4.546875 0.882812 3.625 1.449219 C 3.527344 1.511719 3.414062 1.554688 3.351562 1.648438 C 3.179688 1.722656 3.066406 1.847656 2.925781 1.949219 C 2.796875 2.0625 2.652344 2.160156 2.550781 2.300781 C 2.222656 2.5625 1.960938 2.894531 1.726562 3.25 C 1.597656 3.363281 1.519531 3.527344 1.425781 3.675781 C 1.355469 3.796875 1.265625 3.898438 1.226562 4.050781 C 1.128906 4.144531 1.078125 4.289062 1.023438 4.425781 C 0.691406 5.148438 0.429688 5.945312 0.375 6.949219 C 0.316406 6.984375 0.367188 7.125 0.351562 7.199219 C 0.351562 7.324219 0.351562 7.449219 0.351562 7.574219 C 0.367188 7.652344 0.316406 7.789062 0.375 7.824219 C 0.429688 8.828125 0.691406 9.625 1.023438 10.351562 C 1.078125 10.488281 1.128906 10.628906 1.226562 10.726562 C 1.265625 10.875 1.355469 10.976562 1.425781 11.101562 C 1.519531 11.246094 1.597656 11.410156 1.726562 11.523438 C 1.960938 11.882812 2.222656 12.210938 2.550781 12.476562 C 2.652344 12.617188 2.796875 12.710938 2.925781 12.824219 C 3.066406 12.925781 3.179688 13.054688 3.351562 13.125 C 3.414062 13.21875 3.527344 13.265625 3.625 13.324219 C 4.546875 13.894531 5.589844 14.34375 7 14.425781 C 7.226562 14.464844 7.625 14.464844 7.851562 14.425781 C 9.257812 14.34375 10.300781 13.894531 11.226562 13.324219 C 11.324219 13.265625 11.433594 13.21875 11.5 13.125 C 11.671875 13.054688 11.785156 12.925781 11.925781 12.824219 C 12.054688 12.710938 12.199219 12.617188 12.300781 12.476562 C 12.628906 12.210938 12.890625 11.882812 13.125 11.523438 C 13.253906 11.410156 13.332031 11.246094 13.425781 11.101562 C 13.496094 10.976562 13.585938 10.875 13.625 10.726562 C 13.722656 10.628906 13.769531 10.488281 13.824219 10.351562 C 14.160156 9.625 14.421875 8.828125 14.476562 7.824219 C 14.53125 7.789062 14.484375 7.652344 14.5 7.574219 C 14.5 7.449219 14.5 7.324219 14.5 7.199219 C 14.484375 7.125 14.53125 6.984375 14.476562 6.949219 C 14.421875 5.945312 14.160156 5.148438 13.824219 4.425781 C 13.769531 4.289062 13.722656 4.144531 13.625 4.050781 C 13.585938 3.898438 13.496094 3.796875 13.425781 3.675781 C 13.332031 3.527344 13.253906 3.363281 13.125 3.25 C 12.890625 2.894531 12.628906 2.5625 12.300781 2.300781 C 12.199219 2.160156 12.054688 2.0625 11.925781 1.949219 C 11.785156 1.847656 11.671875 1.722656 11.5 1.648438 C 11.433594 1.554688 11.324219 1.511719 11.226562 1.449219 C 10.300781 0.882812 9.257812 0.433594 7.851562 0.351562 C 7.625 0.308594 7.226562 0.308594 7 0.351562 Z M 7 0.351562 "/>
<path style=" stroke:none;fill-rule:evenodd;fill:rgb(100%,63.529412%,18.823529%);fill-opacity:1;" d="M 5.851562 5.949219 C 5.496094 5.421875 5.128906 4.953125 5.125 4.101562 C 5.121094 2.4375 5.890625 0.757812 7.5 0.523438 C 7.535156 0.582031 7.675781 0.535156 7.75 0.550781 C 9.136719 0.652344 10.179688 1.101562 11.125 1.648438 C 11.195312 1.738281 11.3125 1.78125 11.398438 1.851562 C 11.472656 1.886719 11.507812 1.960938 11.601562 1.976562 C 11.925781 2.257812 12.25 2.542969 12.550781 2.851562 C 12.65625 3.035156 12.808594 3.171875 12.925781 3.351562 C 13.027344 3.488281 13.105469 3.652344 13.226562 3.773438 C 13.273438 3.921875 13.363281 4.019531 13.425781 4.148438 C 13.496094 4.273438 13.542969 4.417969 13.625 4.523438 C 14.460938 6.035156 14.460938 8.738281 13.625 10.25 C 13.542969 10.359375 13.496094 10.503906 13.425781 10.625 C 13.363281 10.753906 13.273438 10.855469 13.226562 11 C 13.105469 11.121094 13.027344 11.285156 12.925781 11.425781 C 12.808594 11.601562 12.65625 11.742188 12.550781 11.925781 C 12.25 12.234375 11.925781 12.515625 11.601562 12.800781 C 11.507812 12.816406 11.472656 12.886719 11.398438 12.925781 C 11.3125 12.996094 11.195312 13.039062 11.125 13.125 C 10.25 13.632812 9.285156 14.050781 8.050781 14.199219 C 9.21875 13.683594 9.84375 12.625 10.074219 11.175781 C 10.132812 11.125 10.085938 10.96875 10.101562 10.875 C 10.132812 9.777344 9.863281 8.980469 9.351562 8.425781 C 9.253906 8.304688 9.144531 8.199219 9.023438 8.101562 C 8.175781 7.375 7.046875 6.929688 6.148438 6.25 C 6.058594 6.140625 5.960938 6.039062 5.851562 5.949219 Z M 10.074219 3.324219 C 9.585938 2.929688 9.144531 2.492188 8.273438 2.476562 C 8.027344 2.171875 7.019531 1.777344 6.976562 2.398438 C 6.949219 2.773438 7.363281 3.011719 7.5 3.300781 C 7.730469 3.792969 7.773438 4.328125 8.074219 4.550781 C 7.746094 5.046875 7.859375 6.714844 8.5 6.648438 C 8.800781 6.621094 8.695312 6.222656 8.824219 5.976562 C 8.960938 6.371094 9.214844 6.652344 9.523438 6.875 C 9.613281 6.980469 9.757812 7.15625 9.875 7.148438 C 9.769531 7.082031 9.707031 6.96875 9.601562 6.898438 C 9.269531 6.464844 9.019531 5.945312 8.773438 5.425781 C 8.542969 5.636719 8.5 6.035156 8.425781 6.398438 C 8.207031 6.257812 8.140625 5.964844 8.101562 5.648438 C 8.101562 5.515625 8.101562 5.382812 8.101562 5.25 C 8.066406 4.964844 8.335938 4.757812 8.273438 4.476562 C 8.253906 4.375 8.101562 4.257812 8.050781 4.175781 C 7.886719 3.910156 7.832031 3.542969 7.675781 3.226562 C 7.511719 2.894531 7.203125 2.683594 7.199219 2.351562 C 7.570312 2.234375 7.917969 2.539062 8.148438 2.726562 C 8.871094 2.710938 9.273438 3.003906 9.648438 3.300781 C 10.292969 3.804688 10.5625 4.34375 10.925781 5.125 C 11.074219 5.441406 11.230469 5.980469 11.476562 6.148438 C 11.707031 6.316406 12.011719 6.332031 12.25 6.476562 C 12.484375 6.617188 12.707031 6.714844 12.898438 6.949219 C 12.46875 6.925781 12.132812 7 11.875 7.148438 C 11.980469 7.488281 12.269531 7.683594 12.574219 7.851562 C 12.878906 8.015625 13.1875 8.191406 13.425781 8.351562 C 13.179688 7.84375 12.613281 7.660156 12.273438 7.25 C 12.585938 7.195312 12.898438 7.140625 13.199219 7.074219 C 12.871094 6.511719 12.296875 6.195312 11.648438 5.949219 C 11.1875 5.179688 10.953125 4.179688 10.324219 3.574219 C 10.253906 3.480469 10.167969 3.398438 10.074219 3.324219 Z M 8.273438 3.148438 C 8.328125 3.304688 8.46875 3.375 8.5 3.550781 C 8.75 3.464844 8.578125 3.058594 8.273438 3.148438 Z M 8.273438 3.148438 "/>
<path style=" stroke:none;fill-rule:evenodd;fill:rgb(100%,80.784314%,57.254902%);fill-opacity:1;" d="M 7.5 0.523438 C 7.574219 0.539062 7.714844 0.492188 7.75 0.550781 C 7.675781 0.535156 7.535156 0.582031 7.5 0.523438 Z M 7.5 0.523438 "/>
<path style=" stroke:none;fill-rule:evenodd;fill:rgb(34.117647%,49.803922%,63.529412%);fill-opacity:1;" d="M 4.5 1.226562 C 5.105469 0.96875 5.726562 0.734375 6.476562 0.625 C 6.496094 0.699219 6.316406 0.746094 6.199219 0.824219 C 5.4375 1.351562 4.914062 2.320312 4.800781 3.523438 C 4.742188 3.617188 4.792969 3.816406 4.773438 3.949219 C 4.789062 6.644531 7.132812 7.007812 8.648438 8.199219 C 8.738281 8.308594 8.839844 8.410156 8.949219 8.5 C 9.292969 8.972656 9.695312 9.53125 9.726562 10.375 C 9.761719 11.386719 9.464844 12.570312 8.949219 13.125 C 8.855469 13.199219 8.773438 13.28125 8.699219 13.375 C 8.3125 13.785156 7.859375 14.121094 7.199219 14.199219 C 6.265625 14.3125 5.21875 13.796875 4.5 13.550781 C 4.425781 13.484375 4.3125 13.453125 4.226562 13.398438 C 4.050781 13.316406 3.90625 13.203125 3.726562 13.125 C 3.652344 13.039062 3.539062 12.996094 3.449219 12.925781 C 3.152344 12.730469 2.90625 12.484375 2.625 12.273438 C 2.523438 12.148438 2.429688 12.019531 2.300781 11.925781 C 2.191406 11.742188 2.039062 11.601562 1.925781 11.425781 C 1.820312 11.285156 1.746094 11.121094 1.625 11 C 1.578125 10.855469 1.488281 10.753906 1.425781 10.625 C 1.355469 10.503906 1.308594 10.359375 1.226562 10.25 C 0.910156 9.507812 0.648438 8.707031 0.574219 7.726562 C 0.558594 7.648438 0.605469 7.507812 0.550781 7.476562 C 0.550781 7.417969 0.550781 7.359375 0.550781 7.300781 C 0.605469 7.265625 0.558594 7.125 0.574219 7.050781 C 0.648438 6.066406 0.910156 5.265625 1.226562 4.523438 C 1.308594 4.417969 1.355469 4.273438 1.425781 4.148438 C 1.488281 4.019531 1.578125 3.921875 1.625 3.773438 C 1.746094 3.652344 1.820312 3.488281 1.925781 3.351562 C 2.039062 3.171875 2.191406 3.035156 2.300781 2.851562 C 2.429688 2.757812 2.523438 2.625 2.625 2.5 C 2.90625 2.289062 3.152344 2.046875 3.449219 1.851562 C 3.539062 1.78125 3.652344 1.738281 3.726562 1.648438 C 3.90625 1.570312 4.050781 1.457031 4.226562 1.375 C 4.3125 1.320312 4.425781 1.292969 4.5 1.226562 Z M 6.851562 9.476562 C 6.882812 9.757812 6.617188 9.964844 6.675781 10.25 C 6.695312 10.351562 6.847656 10.464844 6.898438 10.550781 C 7.066406 10.816406 7.117188 11.183594 7.273438 11.5 C 7.4375 11.828125 7.75 12.039062 7.75 12.375 C 7.378906 12.492188 7.03125 12.183594 6.800781 12 C 6.082031 12.015625 5.675781 11.71875 5.300781 11.425781 C 4.660156 10.921875 4.378906 10.378906 4.023438 9.601562 C 3.878906 9.28125 3.714844 8.742188 3.476562 8.574219 C 3.234375 8.40625 2.910156 8.421875 2.675781 8.273438 C 2.433594 8.125 2.257812 7.980469 2.050781 7.773438 C 2.480469 7.796875 2.8125 7.722656 3.074219 7.574219 C 2.9375 7.050781 2.363281 6.925781 1.949219 6.675781 C 1.785156 6.574219 1.695312 6.40625 1.523438 6.375 C 1.773438 6.875 2.335938 7.0625 2.675781 7.476562 C 2.367188 7.535156 2.046875 7.582031 1.75 7.648438 C 2.078125 8.210938 2.65625 8.527344 3.300781 8.773438 C 3.761719 9.546875 3.996094 10.546875 4.625 11.148438 C 4.699219 11.242188 4.78125 11.328125 4.875 11.398438 C 5.363281 11.792969 5.808594 12.234375 6.675781 12.25 C 6.925781 12.554688 7.925781 12.949219 7.976562 12.324219 C 8.003906 11.957031 7.585938 11.710938 7.449219 11.425781 C 7.21875 10.933594 7.171875 10.398438 6.875 10.175781 C 7.203125 9.683594 7.089844 8.003906 6.449219 8.074219 C 6.152344 8.105469 6.253906 8.503906 6.125 8.75 C 5.992188 8.367188 5.757812 8.085938 5.449219 7.875 C 5.351562 7.765625 5.203125 7.570312 5.074219 7.574219 C 5.191406 7.652344 5.261719 7.773438 5.375 7.851562 C 5.65625 8.292969 5.960938 8.714844 6.125 9.273438 C 6.445312 9.148438 6.425781 8.675781 6.523438 8.324219 C 6.746094 8.457031 6.796875 8.753906 6.851562 9.050781 C 6.851562 9.191406 6.851562 9.332031 6.851562 9.476562 Z M 6.675781 11.574219 C 6.625 11.417969 6.476562 11.355469 6.449219 11.175781 C 6.207031 11.269531 6.367188 11.664062 6.675781 11.574219 Z M 6.675781 11.574219 "/>
<path style=" stroke:none;fill-rule:evenodd;fill:rgb(67.843137%,75.294118%,81.960784%);fill-opacity:1;" d="M 4.800781 3.523438 C 4.785156 3.660156 4.832031 3.859375 4.773438 3.949219 C 4.792969 3.816406 4.742188 3.617188 4.800781 3.523438 Z M 4.800781 3.523438 "/>
<path style=" stroke:none;fill-rule:evenodd;fill:rgb(100%,80.784314%,57.254902%);fill-opacity:1;" d="M 8.101562 5.25 C 8.101562 5.382812 8.101562 5.515625 8.101562 5.648438 C 8.058594 5.574219 8.058594 5.324219 8.101562 5.25 Z M 8.101562 5.25 "/>
<path style=" stroke:none;fill-rule:evenodd;fill:rgb(67.843137%,75.294118%,81.960784%);fill-opacity:1;" d="M 0.148438 7.101562 C 0.164062 7.023438 0.117188 6.882812 0.175781 6.851562 C 0.160156 6.925781 0.207031 7.066406 0.148438 7.101562 Z M 0.148438 7.101562 "/>
<path style=" stroke:none;fill-rule:evenodd;fill:rgb(67.843137%,75.294118%,81.960784%);fill-opacity:1;" d="M 14.675781 6.851562 C 14.730469 6.882812 14.683594 7.023438 14.699219 7.101562 C 14.644531 7.066406 14.691406 6.925781 14.675781 6.851562 Z M 14.675781 6.851562 "/>
<path style=" stroke:none;fill-rule:evenodd;fill:rgb(67.843137%,75.294118%,81.960784%);fill-opacity:1;" d="M 0.375 6.949219 C 0.375 7.035156 0.375 7.117188 0.375 7.199219 C 0.367188 7.199219 0.359375 7.199219 0.351562 7.199219 C 0.367188 7.125 0.316406 6.984375 0.375 6.949219 Z M 0.375 6.949219 "/>
<path style=" stroke:none;fill-rule:evenodd;fill:rgb(67.843137%,75.294118%,81.960784%);fill-opacity:1;" d="M 14.476562 6.949219 C 14.53125 6.984375 14.484375 7.125 14.5 7.199219 C 14.492188 7.199219 14.484375 7.199219 14.476562 7.199219 C 14.476562 7.117188 14.476562 7.035156 14.476562 6.949219 Z M 14.476562 6.949219 "/>
<path style=" stroke:none;fill-rule:evenodd;fill:rgb(67.843137%,75.294118%,81.960784%);fill-opacity:1;" d="M 0.550781 7.300781 C 0.566406 7.222656 0.519531 7.085938 0.574219 7.050781 C 0.558594 7.125 0.605469 7.265625 0.550781 7.300781 Z M 0.550781 7.300781 "/>
<path style=" stroke:none;fill-rule:evenodd;fill:rgb(99.607843%,99.607843%,99.607843%);fill-opacity:1;" d="M 0.351562 7.199219 C 0.359375 7.199219 0.367188 7.199219 0.375 7.199219 C 0.375 7.324219 0.375 7.449219 0.375 7.574219 C 0.367188 7.574219 0.359375 7.574219 0.351562 7.574219 C 0.351562 7.449219 0.351562 7.324219 0.351562 7.199219 Z M 0.351562 7.199219 "/>
<path style=" stroke:none;fill-rule:evenodd;fill:rgb(99.607843%,99.607843%,99.607843%);fill-opacity:1;" d="M 14.476562 7.199219 C 14.484375 7.199219 14.492188 7.199219 14.5 7.199219 C 14.5 7.324219 14.5 7.449219 14.5 7.574219 C 14.492188 7.574219 14.484375 7.574219 14.476562 7.574219 C 14.476562 7.449219 14.476562 7.324219 14.476562 7.199219 Z M 14.476562 7.199219 "/>
<path style=" stroke:none;fill-rule:evenodd;fill:rgb(67.843137%,75.294118%,81.960784%);fill-opacity:1;" d="M 0.550781 7.476562 C 0.605469 7.507812 0.558594 7.648438 0.574219 7.726562 C 0.519531 7.691406 0.566406 7.550781 0.550781 7.476562 Z M 0.550781 7.476562 "/>
<path style=" stroke:none;fill-rule:evenodd;fill:rgb(67.843137%,75.294118%,81.960784%);fill-opacity:1;" d="M 0.351562 7.574219 C 0.359375 7.574219 0.367188 7.574219 0.375 7.574219 C 0.375 7.660156 0.375 7.742188 0.375 7.824219 C 0.316406 7.789062 0.367188 7.652344 0.351562 7.574219 Z M 0.351562 7.574219 "/>
<path style=" stroke:none;fill-rule:evenodd;fill:rgb(67.843137%,75.294118%,81.960784%);fill-opacity:1;" d="M 14.476562 7.574219 C 14.484375 7.574219 14.492188 7.574219 14.5 7.574219 C 14.484375 7.652344 14.53125 7.789062 14.476562 7.824219 C 14.476562 7.742188 14.476562 7.660156 14.476562 7.574219 Z M 14.476562 7.574219 "/>
<path style=" stroke:none;fill-rule:evenodd;fill:rgb(67.843137%,75.294118%,81.960784%);fill-opacity:1;" d="M 0.148438 7.675781 C 0.207031 7.710938 0.160156 7.847656 0.175781 7.925781 C 0.117188 7.890625 0.164062 7.75 0.148438 7.675781 Z M 0.148438 7.675781 "/>
<path style=" stroke:none;fill-rule:evenodd;fill:rgb(67.843137%,75.294118%,81.960784%);fill-opacity:1;" d="M 14.699219 7.675781 C 14.683594 7.75 14.730469 7.890625 14.675781 7.925781 C 14.691406 7.847656 14.644531 7.710938 14.699219 7.675781 Z M 14.699219 7.675781 "/>
<path style=" stroke:none;fill-rule:evenodd;fill:rgb(67.843137%,75.294118%,81.960784%);fill-opacity:1;" d="M 6.851562 9.050781 C 6.890625 9.132812 6.890625 9.390625 6.851562 9.476562 C 6.851562 9.332031 6.851562 9.191406 6.851562 9.050781 Z M 6.851562 9.050781 "/>
<path style=" stroke:none;fill-rule:evenodd;fill:rgb(100%,80.784314%,57.254902%);fill-opacity:1;" d="M 10.074219 11.175781 C 10.089844 11.082031 10.042969 10.925781 10.101562 10.875 C 10.085938 10.96875 10.132812 11.125 10.074219 11.175781 Z M 10.074219 11.175781 "/>
<path style=" stroke:none;fill-rule:evenodd;fill:rgb(67.843137%,75.294118%,81.960784%);fill-opacity:1;" d="M 4.023438 0.976562 C 4.085938 0.894531 4.195312 0.863281 4.300781 0.824219 C 4.226562 0.890625 4.113281 0.921875 4.023438 0.976562 Z M 4.023438 0.976562 "/>
<path style=" stroke:none;fill-rule:evenodd;fill:rgb(67.843137%,75.294118%,81.960784%);fill-opacity:1;" d="M 3.25 1.449219 C 3.316406 1.355469 3.425781 1.3125 3.523438 1.25 C 3.453125 1.335938 3.335938 1.378906 3.25 1.449219 Z M 3.25 1.449219 "/>
<path style=" stroke:none;fill-rule:evenodd;fill:rgb(67.843137%,75.294118%,81.960784%);fill-opacity:1;" d="M 1.898438 2.648438 C 2.070312 2.464844 2.226562 2.257812 2.425781 2.101562 C 2.246094 2.28125 2.09375 2.484375 1.898438 2.648438 Z M 1.898438 2.648438 "/>
<path style=" stroke:none;fill-rule:evenodd;fill:rgb(67.843137%,75.294118%,81.960784%);fill-opacity:1;" d="M 1.226562 3.574219 C 1.320312 3.429688 1.398438 3.265625 1.523438 3.148438 C 1.421875 3.289062 1.34375 3.453125 1.226562 3.574219 Z M 1.226562 3.574219 "/>
<path style=" stroke:none;fill-rule:evenodd;fill:rgb(67.843137%,75.294118%,81.960784%);fill-opacity:1;" d="M 0.824219 4.324219 C 0.878906 4.1875 0.929688 4.046875 1.023438 3.949219 C 0.957031 4.070312 0.910156 4.21875 0.824219 4.324219 Z M 0.824219 4.324219 "/>
<path style=" stroke:none;fill-rule:evenodd;fill:rgb(67.843137%,75.294118%,81.960784%);fill-opacity:1;" d="M 0.824219 10.449219 C 0.910156 10.558594 0.957031 10.703125 1.023438 10.824219 C 0.929688 10.730469 0.878906 10.585938 0.824219 10.449219 Z M 0.824219 10.449219 "/>
<path style=" stroke:none;fill-rule:evenodd;fill:rgb(67.843137%,75.294118%,81.960784%);fill-opacity:1;" d="M 1.523438 11.625 C 1.398438 11.511719 1.320312 11.347656 1.226562 11.199219 C 1.34375 11.320312 1.421875 11.488281 1.523438 11.625 Z M 1.523438 11.625 "/>
<path style=" stroke:none;fill-rule:evenodd;fill:rgb(67.843137%,75.294118%,81.960784%);fill-opacity:1;" d="M 2.425781 12.675781 C 2.226562 12.515625 2.070312 12.3125 1.898438 12.125 C 2.09375 12.289062 2.246094 12.496094 2.425781 12.675781 Z M 2.425781 12.675781 "/>
<path style=" stroke:none;fill-rule:evenodd;fill:rgb(67.843137%,75.294118%,81.960784%);fill-opacity:1;" d="M 3.523438 13.523438 C 3.425781 13.464844 3.316406 13.417969 3.25 13.324219 C 3.335938 13.394531 3.453125 13.4375 3.523438 13.523438 Z M 3.523438 13.523438 "/>
<path style=" stroke:none;fill-rule:evenodd;fill:rgb(67.843137%,75.294118%,81.960784%);fill-opacity:1;" d="M 4.300781 13.949219 C 4.195312 13.914062 4.085938 13.878906 4.023438 13.800781 C 4.113281 13.851562 4.226562 13.882812 4.300781 13.949219 Z M 4.300781 13.949219 "/>
<path style=" stroke:none;fill-rule:evenodd;fill:rgb(67.843137%,75.294118%,81.960784%);fill-opacity:1;" d="M 10.550781 13.949219 C 10.625 13.882812 10.738281 13.851562 10.824219 13.800781 C 10.761719 13.878906 10.652344 13.914062 10.550781 13.949219 Z M 10.550781 13.949219 "/>
<path style=" stroke:none;fill-rule:evenodd;fill:rgb(67.843137%,75.294118%,81.960784%);fill-opacity:1;" d="M 11.324219 13.523438 C 11.394531 13.4375 11.511719 13.394531 11.601562 13.324219 C 11.535156 13.417969 11.421875 13.464844 11.324219 13.523438 Z M 11.324219 13.523438 "/>
<path style=" stroke:none;fill-rule:evenodd;fill:rgb(67.843137%,75.294118%,81.960784%);fill-opacity:1;" d="M 12.425781 12.675781 C 12.601562 12.496094 12.753906 12.289062 12.949219 12.125 C 12.777344 12.3125 12.625 12.515625 12.425781 12.675781 Z M 12.425781 12.675781 "/>
<path style=" stroke:none;fill-rule:evenodd;fill:rgb(67.843137%,75.294118%,81.960784%);fill-opacity:1;" d="M 13.625 11.199219 C 13.53125 11.347656 13.453125 11.511719 13.324219 11.625 C 13.429688 11.488281 13.503906 11.320312 13.625 11.199219 Z M 13.625 11.199219 "/>
<path style=" stroke:none;fill-rule:evenodd;fill:rgb(67.843137%,75.294118%,81.960784%);fill-opacity:1;" d="M 14.023438 10.449219 C 13.96875 10.585938 13.921875 10.730469 13.824219 10.824219 C 13.894531 10.703125 13.941406 10.558594 14.023438 10.449219 Z M 14.023438 10.449219 "/>
<path style=" stroke:none;fill-rule:evenodd;fill:rgb(67.843137%,75.294118%,81.960784%);fill-opacity:1;" d="M 13.824219 3.949219 C 13.921875 4.046875 13.96875 4.1875 14.023438 4.324219 C 13.941406 4.21875 13.894531 4.070312 13.824219 3.949219 Z M 13.824219 3.949219 "/>
<path style=" stroke:none;fill-rule:evenodd;fill:rgb(67.843137%,75.294118%,81.960784%);fill-opacity:1;" d="M 13.324219 3.148438 C 13.453125 3.265625 13.53125 3.429688 13.625 3.574219 C 13.503906 3.453125 13.429688 3.289062 13.324219 3.148438 Z M 13.324219 3.148438 "/>
<path style=" stroke:none;fill-rule:evenodd;fill:rgb(67.843137%,75.294118%,81.960784%);fill-opacity:1;" d="M 12.425781 2.101562 C 12.625 2.257812 12.777344 2.464844 12.949219 2.648438 C 12.753906 2.484375 12.601562 2.28125 12.425781 2.101562 Z M 12.425781 2.101562 "/>
<path style=" stroke:none;fill-rule:evenodd;fill:rgb(67.843137%,75.294118%,81.960784%);fill-opacity:1;" d="M 11.324219 1.25 C 11.421875 1.3125 11.535156 1.355469 11.601562 1.449219 C 11.511719 1.378906 11.394531 1.335938 11.324219 1.25 Z M 11.324219 1.25 "/>
<path style=" stroke:none;fill-rule:evenodd;fill:rgb(67.843137%,75.294118%,81.960784%);fill-opacity:1;" d="M 10.550781 0.824219 C 10.652344 0.863281 10.761719 0.894531 10.824219 0.976562 C 10.738281 0.921875 10.625 0.890625 10.550781 0.824219 Z M 10.550781 0.824219 "/>
<path style=" stroke:none;fill-rule:evenodd;fill:rgb(67.843137%,75.294118%,81.960784%);fill-opacity:1;" d="M 3.351562 1.648438 C 3.414062 1.554688 3.527344 1.511719 3.625 1.449219 C 3.554688 1.539062 3.4375 1.578125 3.351562 1.648438 Z M 3.351562 1.648438 "/>
<path style=" stroke:none;fill-rule:evenodd;fill:rgb(67.843137%,75.294118%,81.960784%);fill-opacity:1;" d="M 2.550781 2.300781 C 2.652344 2.160156 2.796875 2.0625 2.925781 1.949219 C 2.820312 2.085938 2.671875 2.179688 2.550781 2.300781 Z M 2.550781 2.300781 "/>
<path style=" stroke:none;fill-rule:evenodd;fill:rgb(67.843137%,75.294118%,81.960784%);fill-opacity:1;" d="M 1.425781 3.675781 C 1.519531 3.527344 1.597656 3.363281 1.726562 3.25 C 1.621094 3.386719 1.546875 3.554688 1.425781 3.675781 Z M 1.425781 3.675781 "/>
<path style=" stroke:none;fill-rule:evenodd;fill:rgb(67.843137%,75.294118%,81.960784%);fill-opacity:1;" d="M 1.023438 4.425781 C 1.078125 4.289062 1.128906 4.144531 1.226562 4.050781 C 1.15625 4.171875 1.109375 4.316406 1.023438 4.425781 Z M 1.023438 4.425781 "/>
<path style=" stroke:none;fill-rule:evenodd;fill:rgb(67.843137%,75.294118%,81.960784%);fill-opacity:1;" d="M 1.023438 10.351562 C 1.109375 10.457031 1.15625 10.601562 1.226562 10.726562 C 1.128906 10.628906 1.078125 10.488281 1.023438 10.351562 Z M 1.023438 10.351562 "/>
<path style=" stroke:none;fill-rule:evenodd;fill:rgb(67.843137%,75.294118%,81.960784%);fill-opacity:1;" d="M 1.425781 11.101562 C 1.546875 11.222656 1.621094 11.386719 1.726562 11.523438 C 1.597656 11.410156 1.519531 11.246094 1.425781 11.101562 Z M 1.425781 11.101562 "/>
<path style=" stroke:none;fill-rule:evenodd;fill:rgb(67.843137%,75.294118%,81.960784%);fill-opacity:1;" d="M 2.550781 12.476562 C 2.671875 12.59375 2.820312 12.6875 2.925781 12.824219 C 2.796875 12.710938 2.652344 12.617188 2.550781 12.476562 Z M 2.550781 12.476562 "/>
<path style=" stroke:none;fill-rule:evenodd;fill:rgb(67.843137%,75.294118%,81.960784%);fill-opacity:1;" d="M 3.351562 13.125 C 3.4375 13.195312 3.554688 13.238281 3.625 13.324219 C 3.527344 13.265625 3.414062 13.21875 3.351562 13.125 Z M 3.351562 13.125 "/>
<path style=" stroke:none;fill-rule:evenodd;fill:rgb(67.843137%,75.294118%,81.960784%);fill-opacity:1;" d="M 11.226562 13.324219 C 11.296875 13.238281 11.414062 13.195312 11.5 13.125 C 11.433594 13.21875 11.324219 13.265625 11.226562 13.324219 Z M 11.226562 13.324219 "/>
<path style=" stroke:none;fill-rule:evenodd;fill:rgb(67.843137%,75.294118%,81.960784%);fill-opacity:1;" d="M 11.925781 12.824219 C 12.03125 12.6875 12.179688 12.59375 12.300781 12.476562 C 12.199219 12.617188 12.054688 12.710938 11.925781 12.824219 Z M 11.925781 12.824219 "/>
<path style=" stroke:none;fill-rule:evenodd;fill:rgb(67.843137%,75.294118%,81.960784%);fill-opacity:1;" d="M 13.125 11.523438 C 13.230469 11.386719 13.304688 11.222656 13.425781 11.101562 C 13.332031 11.246094 13.253906 11.410156 13.125 11.523438 Z M 13.125 11.523438 "/>
<path style=" stroke:none;fill-rule:evenodd;fill:rgb(67.843137%,75.294118%,81.960784%);fill-opacity:1;" d="M 13.625 10.726562 C 13.695312 10.601562 13.742188 10.457031 13.824219 10.351562 C 13.769531 10.488281 13.722656 10.628906 13.625 10.726562 Z M 13.625 10.726562 "/>
<path style=" stroke:none;fill-rule:evenodd;fill:rgb(67.843137%,75.294118%,81.960784%);fill-opacity:1;" d="M 13.824219 4.425781 C 13.742188 4.316406 13.695312 4.171875 13.625 4.050781 C 13.722656 4.144531 13.769531 4.289062 13.824219 4.425781 Z M 13.824219 4.425781 "/>
<path style=" stroke:none;fill-rule:evenodd;fill:rgb(67.843137%,75.294118%,81.960784%);fill-opacity:1;" d="M 13.425781 3.675781 C 13.304688 3.554688 13.230469 3.386719 13.125 3.25 C 13.253906 3.363281 13.332031 3.527344 13.425781 3.675781 Z M 13.425781 3.675781 "/>
<path style=" stroke:none;fill-rule:evenodd;fill:rgb(67.843137%,75.294118%,81.960784%);fill-opacity:1;" d="M 11.925781 1.949219 C 12.054688 2.0625 12.199219 2.160156 12.300781 2.300781 C 12.179688 2.179688 12.03125 2.085938 11.925781 1.949219 Z M 11.925781 1.949219 "/>
<path style=" stroke:none;fill-rule:evenodd;fill:rgb(67.843137%,75.294118%,81.960784%);fill-opacity:1;" d="M 11.5 1.648438 C 11.414062 1.578125 11.296875 1.539062 11.226562 1.449219 C 11.324219 1.511719 11.433594 1.554688 11.5 1.648438 Z M 11.5 1.648438 "/>
<path style=" stroke:none;fill-rule:evenodd;fill:rgb(100%,80.784314%,57.254902%);fill-opacity:1;" d="M 5.851562 5.949219 C 5.960938 6.039062 6.058594 6.140625 6.148438 6.25 C 6.039062 6.160156 5.941406 6.058594 5.851562 5.949219 Z M 5.851562 5.949219 "/>
<path style=" stroke:none;fill-rule:evenodd;fill:rgb(100%,80.784314%,57.254902%);fill-opacity:1;" d="M 9.023438 8.101562 C 9.144531 8.199219 9.253906 8.304688 9.351562 8.425781 C 9.230469 8.328125 9.121094 8.21875 9.023438 8.101562 Z M 9.023438 8.101562 "/>
<path style=" stroke:none;fill-rule:evenodd;fill:rgb(100%,80.784314%,57.254902%);fill-opacity:1;" d="M 11.125 13.125 C 11.195312 13.039062 11.3125 12.996094 11.398438 12.925781 C 11.335938 13.019531 11.222656 13.0625 11.125 13.125 Z M 11.125 13.125 "/>
<path style=" stroke:none;fill-rule:evenodd;fill:rgb(100%,80.784314%,57.254902%);fill-opacity:1;" d="M 11.601562 12.800781 C 11.925781 12.515625 12.25 12.234375 12.550781 11.925781 C 12.273438 12.253906 11.949219 12.539062 11.601562 12.800781 Z M 11.601562 12.800781 "/>
<path style=" stroke:none;fill-rule:evenodd;fill:rgb(100%,80.784314%,57.254902%);fill-opacity:1;" d="M 13.226562 11 C 13.128906 11.148438 13.054688 11.3125 12.925781 11.425781 C 13.027344 11.285156 13.105469 11.121094 13.226562 11 Z M 13.226562 11 "/>
<path style=" stroke:none;fill-rule:evenodd;fill:rgb(100%,80.784314%,57.254902%);fill-opacity:1;" d="M 13.625 10.25 C 13.570312 10.386719 13.519531 10.53125 13.425781 10.625 C 13.496094 10.503906 13.542969 10.359375 13.625 10.25 Z M 13.625 10.25 "/>
<path style=" stroke:none;fill-rule:evenodd;fill:rgb(100%,80.784314%,57.254902%);fill-opacity:1;" d="M 13.425781 4.148438 C 13.519531 4.246094 13.570312 4.386719 13.625 4.523438 C 13.542969 4.417969 13.496094 4.273438 13.425781 4.148438 Z M 13.425781 4.148438 "/>
<path style=" stroke:none;fill-rule:evenodd;fill:rgb(100%,80.784314%,57.254902%);fill-opacity:1;" d="M 12.925781 3.351562 C 13.054688 3.464844 13.128906 3.628906 13.226562 3.773438 C 13.105469 3.652344 13.027344 3.488281 12.925781 3.351562 Z M 12.925781 3.351562 "/>
<path style=" stroke:none;fill-rule:evenodd;fill:rgb(100%,80.784314%,57.254902%);fill-opacity:1;" d="M 11.601562 1.976562 C 11.949219 2.234375 12.273438 2.519531 12.550781 2.851562 C 12.25 2.542969 11.925781 2.257812 11.601562 1.976562 Z M 11.601562 1.976562 "/>
<path style=" stroke:none;fill-rule:evenodd;fill:rgb(100%,80.784314%,57.254902%);fill-opacity:1;" d="M 11.125 1.648438 C 11.222656 1.710938 11.335938 1.757812 11.398438 1.851562 C 11.3125 1.78125 11.195312 1.738281 11.125 1.648438 Z M 11.125 1.648438 "/>
<path style=" stroke:none;fill-rule:evenodd;fill:rgb(67.843137%,75.294118%,81.960784%);fill-opacity:1;" d="M 4.226562 1.375 C 4.289062 1.296875 4.394531 1.261719 4.5 1.226562 C 4.425781 1.292969 4.3125 1.320312 4.226562 1.375 Z M 4.226562 1.375 "/>
<path style=" stroke:none;fill-rule:evenodd;fill:rgb(67.843137%,75.294118%,81.960784%);fill-opacity:1;" d="M 3.449219 1.851562 C 3.515625 1.757812 3.628906 1.710938 3.726562 1.648438 C 3.652344 1.738281 3.539062 1.78125 3.449219 1.851562 Z M 3.449219 1.851562 "/>
<path style=" stroke:none;fill-rule:evenodd;fill:rgb(67.843137%,75.294118%,81.960784%);fill-opacity:1;" d="M 2.300781 2.851562 C 2.410156 2.734375 2.5 2.601562 2.625 2.5 C 2.523438 2.625 2.429688 2.757812 2.300781 2.851562 Z M 2.300781 2.851562 "/>
<path style=" stroke:none;fill-rule:evenodd;fill:rgb(67.843137%,75.294118%,81.960784%);fill-opacity:1;" d="M 1.625 3.773438 C 1.71875 3.628906 1.796875 3.464844 1.925781 3.351562 C 1.820312 3.488281 1.746094 3.652344 1.625 3.773438 Z M 1.625 3.773438 "/>
<path style=" stroke:none;fill-rule:evenodd;fill:rgb(67.843137%,75.294118%,81.960784%);fill-opacity:1;" d="M 1.226562 4.523438 C 1.28125 4.386719 1.328125 4.246094 1.425781 4.148438 C 1.355469 4.273438 1.308594 4.417969 1.226562 4.523438 Z M 1.226562 4.523438 "/>
<path style=" stroke:none;fill-rule:evenodd;fill:rgb(67.843137%,75.294118%,81.960784%);fill-opacity:1;" d="M 1.226562 10.25 C 1.308594 10.359375 1.355469 10.503906 1.425781 10.625 C 1.328125 10.53125 1.28125 10.386719 1.226562 10.25 Z M 1.226562 10.25 "/>
<path style=" stroke:none;fill-rule:evenodd;fill:rgb(67.843137%,75.294118%,81.960784%);fill-opacity:1;" d="M 1.925781 11.425781 C 1.796875 11.3125 1.71875 11.148438 1.625 11 C 1.746094 11.121094 1.820312 11.285156 1.925781 11.425781 Z M 1.925781 11.425781 "/>
<path style=" stroke:none;fill-rule:evenodd;fill:rgb(67.843137%,75.294118%,81.960784%);fill-opacity:1;" d="M 2.625 12.273438 C 2.5 12.175781 2.410156 12.039062 2.300781 11.925781 C 2.429688 12.019531 2.523438 12.148438 2.625 12.273438 Z M 2.625 12.273438 "/>
<path style=" stroke:none;fill-rule:evenodd;fill:rgb(67.843137%,75.294118%,81.960784%);fill-opacity:1;" d="M 3.726562 13.125 C 3.628906 13.0625 3.515625 13.019531 3.449219 12.925781 C 3.539062 12.996094 3.652344 13.039062 3.726562 13.125 Z M 3.726562 13.125 "/>
<path style=" stroke:none;fill-rule:evenodd;fill:rgb(67.843137%,75.294118%,81.960784%);fill-opacity:1;" d="M 4.5 13.550781 C 4.394531 13.511719 4.289062 13.480469 4.226562 13.398438 C 4.3125 13.453125 4.425781 13.484375 4.5 13.550781 Z M 4.5 13.550781 "/>
<path style=" stroke:none;fill-rule:evenodd;fill:rgb(67.843137%,75.294118%,81.960784%);fill-opacity:1;" d="M 8.699219 13.375 C 8.773438 13.28125 8.855469 13.199219 8.949219 13.125 C 8.878906 13.21875 8.792969 13.300781 8.699219 13.375 Z M 8.699219 13.375 "/>
<path style=" stroke:none;fill-rule:evenodd;fill:rgb(67.843137%,75.294118%,81.960784%);fill-opacity:1;" d="M 8.648438 8.199219 C 8.761719 8.289062 8.859375 8.390625 8.949219 8.5 C 8.839844 8.410156 8.738281 8.308594 8.648438 8.199219 Z M 8.648438 8.199219 "/>
<path style=" stroke:none;fill-rule:evenodd;fill:rgb(100%,80.784314%,57.254902%);fill-opacity:1;" d="M 9.601562 6.898438 C 9.707031 6.96875 9.769531 7.082031 9.875 7.148438 C 9.757812 7.15625 9.613281 6.980469 9.523438 6.875 C 9.5625 6.863281 9.585938 6.972656 9.601562 6.898438 Z M 9.601562 6.898438 "/>
<path style=" stroke:none;fill-rule:evenodd;fill:rgb(99.607843%,99.607843%,99.607843%);fill-opacity:1;" d="M 10.324219 3.574219 C 10.953125 4.179688 11.1875 5.179688 11.648438 5.949219 C 12.296875 6.195312 12.871094 6.511719 13.199219 7.074219 C 12.898438 7.140625 12.585938 7.195312 12.273438 7.25 C 12.613281 7.660156 13.179688 7.84375 13.425781 8.351562 C 13.1875 8.191406 12.878906 8.015625 12.574219 7.851562 C 12.269531 7.683594 11.980469 7.488281 11.875 7.148438 C 12.132812 7 12.46875 6.925781 12.898438 6.949219 C 12.707031 6.714844 12.484375 6.617188 12.25 6.476562 C 12.011719 6.332031 11.707031 6.316406 11.476562 6.148438 C 11.230469 5.980469 11.074219 5.441406 10.925781 5.125 C 10.5625 4.34375 10.292969 3.804688 9.648438 3.300781 C 9.273438 3.003906 8.871094 2.710938 8.148438 2.726562 C 7.917969 2.539062 7.570312 2.234375 7.199219 2.351562 C 7.203125 2.683594 7.511719 2.894531 7.675781 3.226562 C 7.832031 3.542969 7.886719 3.910156 8.050781 4.175781 C 8.101562 4.257812 8.253906 4.375 8.273438 4.476562 C 8.335938 4.757812 8.066406 4.964844 8.101562 5.25 C 8.058594 5.324219 8.058594 5.574219 8.101562 5.648438 C 8.140625 5.964844 8.207031 6.257812 8.425781 6.398438 C 8.5 6.035156 8.542969 5.636719 8.773438 5.425781 C 9.019531 5.945312 9.269531 6.464844 9.601562 6.898438 C 9.585938 6.972656 9.5625 6.863281 9.523438 6.875 C 9.214844 6.652344 8.960938 6.371094 8.824219 5.976562 C 8.695312 6.222656 8.800781 6.621094 8.5 6.648438 C 7.859375 6.714844 7.746094 5.046875 8.074219 4.550781 C 7.773438 4.328125 7.730469 3.792969 7.5 3.300781 C 7.363281 3.011719 6.949219 2.773438 6.976562 2.398438 C 7.019531 1.777344 8.027344 2.171875 8.273438 2.476562 C 9.144531 2.492188 9.585938 2.929688 10.074219 3.324219 C 10.148438 3.417969 10.230469 3.503906 10.324219 3.574219 Z M 10.324219 3.574219 "/>
<path style=" stroke:none;fill-rule:evenodd;fill:rgb(100%,80.784314%,57.254902%);fill-opacity:1;" d="M 10.074219 3.324219 C 10.167969 3.398438 10.253906 3.480469 10.324219 3.574219 C 10.230469 3.503906 10.148438 3.417969 10.074219 3.324219 Z M 10.074219 3.324219 "/>
<path style=" stroke:none;fill-rule:evenodd;fill:rgb(99.607843%,99.607843%,99.607843%);fill-opacity:1;" d="M 8.5 3.550781 C 8.46875 3.375 8.328125 3.304688 8.273438 3.148438 C 8.578125 3.058594 8.75 3.464844 8.5 3.550781 Z M 8.5 3.550781 "/>
<path style=" stroke:none;fill-rule:evenodd;fill:rgb(67.843137%,75.294118%,81.960784%);fill-opacity:1;" d="M 4.625 11.148438 C 4.71875 11.222656 4.800781 11.304688 4.875 11.398438 C 4.78125 11.328125 4.699219 11.242188 4.625 11.148438 Z M 4.625 11.148438 "/>
<path style=" stroke:none;fill-rule:evenodd;fill:rgb(67.843137%,75.294118%,81.960784%);fill-opacity:1;" d="M 5.375 7.851562 C 5.261719 7.773438 5.191406 7.652344 5.074219 7.574219 C 5.203125 7.570312 5.351562 7.765625 5.449219 7.875 C 5.414062 7.886719 5.390625 7.777344 5.375 7.851562 Z M 5.375 7.851562 "/>
<path style=" stroke:none;fill-rule:evenodd;fill:rgb(99.607843%,99.607843%,99.607843%);fill-opacity:1;" d="M 4.625 11.148438 C 3.996094 10.546875 3.761719 9.546875 3.300781 8.773438 C 2.65625 8.527344 2.078125 8.210938 1.75 7.648438 C 2.046875 7.582031 2.367188 7.535156 2.675781 7.476562 C 2.335938 7.0625 1.773438 6.875 1.523438 6.375 C 1.695312 6.40625 1.785156 6.574219 1.949219 6.675781 C 2.363281 6.925781 2.9375 7.050781 3.074219 7.574219 C 2.8125 7.722656 2.480469 7.796875 2.050781 7.773438 C 2.257812 7.980469 2.433594 8.125 2.675781 8.273438 C 2.910156 8.421875 3.234375 8.40625 3.476562 8.574219 C 3.714844 8.742188 3.878906 9.28125 4.023438 9.601562 C 4.378906 10.378906 4.660156 10.921875 5.300781 11.425781 C 5.675781 11.71875 6.082031 12.015625 6.800781 12 C 7.03125 12.183594 7.378906 12.492188 7.75 12.375 C 7.75 12.039062 7.4375 11.828125 7.273438 11.5 C 7.117188 11.183594 7.066406 10.816406 6.898438 10.550781 C 6.847656 10.464844 6.695312 10.351562 6.675781 10.25 C 6.617188 9.964844 6.882812 9.757812 6.851562 9.476562 C 6.890625 9.390625 6.890625 9.132812 6.851562 9.050781 C 6.796875 8.753906 6.746094 8.457031 6.523438 8.324219 C 6.425781 8.675781 6.445312 9.148438 6.125 9.273438 C 5.960938 8.714844 5.65625 8.292969 5.375 7.851562 C 5.390625 7.777344 5.414062 7.886719 5.449219 7.875 C 5.757812 8.085938 5.992188 8.367188 6.125 8.75 C 6.253906 8.503906 6.152344 8.105469 6.449219 8.074219 C 7.089844 8.003906 7.203125 9.683594 6.875 10.175781 C 7.175781 10.398438 7.21875 10.933594 7.449219 11.425781 C 7.585938 11.710938 8.003906 11.957031 7.976562 12.324219 C 7.925781 12.949219 6.925781 12.554688 6.675781 12.25 C 5.808594 12.234375 5.363281 11.792969 4.875 11.398438 C 4.800781 11.304688 4.71875 11.222656 4.625 11.148438 Z M 4.625 11.148438 "/>
<path style=" stroke:none;fill-rule:evenodd;fill:rgb(99.607843%,99.607843%,99.607843%);fill-opacity:1;" d="M 6.449219 11.175781 C 6.476562 11.355469 6.625 11.417969 6.675781 11.574219 C 6.367188 11.664062 6.207031 11.269531 6.449219 11.175781 Z M 6.449219 11.175781 "/>
<path style=" stroke:none;fill-rule:evenodd;fill:rgb(67.843137%,75.294118%,81.960784%);fill-opacity:1;" d="M 7 0.351562 C 7.226562 0.308594 7.625 0.308594 7.851562 0.351562 C 7.566406 0.351562 7.285156 0.351562 7 0.351562 Z M 7 0.351562 "/>
<path style=" stroke:none;fill-rule:evenodd;fill:rgb(67.843137%,75.294118%,81.960784%);fill-opacity:1;" d="M 7 14.425781 C 7.285156 14.425781 7.566406 14.425781 7.851562 14.425781 C 7.625 14.464844 7.226562 14.464844 7 14.425781 Z M 7 14.425781 "/>
</g>
</svg>
