<?xml version="1.0" encoding="UTF-8"?>
<svg xmlns="http://www.w3.org/2000/svg" xmlns:xlink="http://www.w3.org/1999/xlink" width="15pt" height="16pt" viewBox="0 0 15 16" version="1.1">
<g id="surface1">
<path style=" stroke:none;fill-rule:nonzero;fill:rgb(13.72549%,12.156863%,12.54902%);fill-opacity:1;" d="M 4.785156 12.726562 C 4.785156 13.230469 4.367188 13.691406 3.808594 13.691406 C 3.25 13.691406 2.832031 13.277344 2.832031 12.726562 L 2.832031 8.597656 C 2.832031 8.089844 3.25 7.632812 3.808594 7.632812 C 4.367188 7.632812 4.785156 8.046875 4.785156 8.597656 Z M 7.570312 13.828125 C 7.570312 14.332031 7.152344 14.792969 6.59375 14.792969 C 6.039062 14.792969 5.664062 14.378906 5.664062 13.828125 L 5.664062 7.542969 C 5.664062 7.035156 6.082031 6.578125 6.640625 6.578125 C 7.199219 6.578125 7.617188 6.992188 7.617188 7.542969 L 7.617188 13.828125 Z M 1.949219 11.808594 C 1.949219 12.3125 1.53125 12.773438 0.976562 12.773438 C 0.417969 12.773438 0 12.359375 0 11.808594 L 0 9.558594 C 0 9.054688 0.417969 8.597656 0.976562 8.597656 C 1.53125 8.597656 1.949219 9.054688 1.949219 9.558594 Z M 10.355469 14.835938 C 10.355469 15.34375 9.9375 15.800781 9.378906 15.800781 C 8.871094 15.800781 8.453125 15.34375 8.453125 14.835938 L 8.453125 6.484375 C 8.453125 5.980469 8.871094 5.523438 9.425781 5.523438 C 9.9375 5.523438 10.402344 5.933594 10.402344 6.484375 L 10.402344 14.835938 Z M 10.355469 14.835938 "/>
<path style=" stroke:none;fill-rule:nonzero;fill:rgb(13.72549%,12.156863%,12.54902%);fill-opacity:1;" d="M 13.421875 14.425781 C 13.234375 14.425781 13.097656 14.378906 12.910156 14.332031 L 11.75 13.964844 C 11.5625 13.917969 11.425781 13.691406 11.515625 13.507812 C 11.5625 13.324219 11.796875 13.183594 11.980469 13.277344 L 13.1875 13.644531 C 13.421875 13.734375 13.699219 13.691406 13.933594 13.507812 C 14.164062 13.367188 14.257812 13.09375 14.257812 12.863281 L 14.257812 5.199219 C 14.257812 4.832031 14.023438 4.511719 13.699219 4.421875 L 2.320312 1.023438 C 2.089844 0.933594 1.8125 0.980469 1.578125 1.117188 C 1.394531 1.300781 1.253906 1.53125 1.253906 1.804688 L 1.253906 7.082031 C 1.253906 7.3125 1.066406 7.449219 0.882812 7.449219 C 0.648438 7.449219 0.511719 7.265625 0.511719 7.082031 L 0.511719 1.804688 C 0.511719 1.300781 0.742188 0.839844 1.160156 0.566406 C 1.578125 0.246094 2.089844 0.199219 2.554688 0.335938 L 13.886719 3.730469 C 14.535156 3.914062 15 4.558594 15 5.246094 L 15 12.910156 C 15 13.414062 14.769531 13.875 14.351562 14.195312 C 14.070312 14.285156 13.746094 14.425781 13.421875 14.425781 "/>
</g>
</svg>
