<?xml version="1.0" encoding="UTF-8"?>
<svg xmlns="http://www.w3.org/2000/svg" xmlns:xlink="http://www.w3.org/1999/xlink" width="15pt" height="12pt" viewBox="0 0 15 12" version="1.1">
<defs>
<linearGradient id="linear0" gradientUnits="userSpaceOnUse" x1="0.37973" y1="0.16999" x2="0.91121" y2="0.76326" gradientTransform="matrix(15,0,0,10.464844,0,0)">
<stop offset="0" style="stop-color:rgb(78.823529%,79.607843%,80.784314%);stop-opacity:1;"/>
<stop offset="1" style="stop-color:rgb(48.235294%,47.843137%,50.588235%);stop-opacity:1;"/>
</linearGradient>
</defs>
<g id="surface1">
<path style=" stroke:none;fill-rule:nonzero;fill:url(#linear0);" d="M 8.75 9.285156 C 5.625 9.285156 2.96875 7.625 2.96875 5.632812 C 2.96875 3.644531 5.3125 1.988281 8.4375 1.988281 C 12.382812 1.988281 14.214844 3.601562 14.214844 5.589844 C 14.214844 7.578125 12.195312 9.285156 8.75 9.285156 M 7.5 0 C 3.4375 0 0 2.320312 0 5.304688 C 0 8.125 3.417969 10.464844 7.480469 10.464844 C 11.542969 10.464844 15 8.289062 15 5.304688 C 15 2.320312 11.5625 0 7.5 0 "/>
<path style=" stroke:none;fill-rule:nonzero;fill:rgb(12.941176%,39.607843%,71.372549%);fill-opacity:1;" d="M 6.207031 3.222656 L 6.207031 11.996094 L 8.707031 11.996094 L 8.707031 8.582031 C 9.332031 8.582031 9.703125 8.4375 10.113281 9.234375 C 10.738281 10.371094 11.515625 11.996094 11.515625 11.996094 L 14.484375 11.996094 C 14.484375 11.996094 12.609375 8.746094 12.453125 8.582031 C 12.167969 8.257812 11.828125 8.257812 11.359375 8.097656 C 12.296875 7.933594 13.171875 7.523438 13.476562 6.636719 C 13.742188 5.824219 13.710938 4.792969 13.140625 4.097656 C 12.648438 3.550781 12.140625 3.222656 10.894531 3.222656 Z M 8.707031 5.050781 L 10.347656 5.050781 C 10.734375 5.050781 11.046875 5.457031 11.046875 5.863281 C 11.046875 6.269531 10.738281 6.675781 10.347656 6.675781 L 8.707031 6.675781 Z M 8.707031 5.050781 "/>
</g>
</svg>
