<?xml version="1.0" encoding="UTF-8"?>
<svg xmlns="http://www.w3.org/2000/svg" xmlns:xlink="http://www.w3.org/1999/xlink" width="14pt" height="18pt" viewBox="0 0 14 18" version="1.1">
<defs>
<filter id="alpha" filterUnits="objectBoundingBox" x="0%" y="0%" width="100%" height="100%">
  <feColorMatrix type="matrix" in="SourceGraphic" values="0 0 0 0 1 0 0 0 0 1 0 0 0 0 1 0 0 0 1 0"/>
</filter>
<mask id="mask0">
  <g filter="url(#alpha)">
<rect x="0" y="0" width="14" height="18" style="fill:rgb(0%,0%,0%);fill-opacity:0.14902;stroke:none;"/>
  </g>
</mask>
<clipPath id="clip1">
  <rect x="0" y="0" width="14" height="18"/>
</clipPath>
<g id="surface5" clip-path="url(#clip1)">
<path style=" stroke:none;fill-rule:evenodd;fill:rgb(100%,100%,100%);fill-opacity:1;" d="M 6.90625 17.890625 L 7 17.890625 C 10.800781 17.890625 13.886719 16.800781 13.886719 15.460938 L 13.886719 2.539062 L 6.90625 2.539062 Z M 6.90625 17.890625 "/>
</g>
</defs>
<g id="surface1">
<path style=" stroke:none;fill-rule:evenodd;fill:rgb(0%,44.705882%,77.647059%);fill-opacity:1;" d="M 0.113281 2.539062 L 0.113281 15.460938 C 0.113281 16.800781 3.199219 17.890625 7 17.890625 L 7 2.539062 Z M 0.113281 2.539062 "/>
<path style=" stroke:none;fill-rule:evenodd;fill:rgb(0%,44.705882%,77.647059%);fill-opacity:1;" d="M 6.90625 17.890625 L 7 17.890625 C 10.800781 17.890625 13.886719 16.800781 13.886719 15.460938 L 13.886719 2.539062 L 6.90625 2.539062 Z M 6.90625 17.890625 "/>
<use xlink:href="#surface5" mask="url(#mask0)"/>
<path style=" stroke:none;fill-rule:evenodd;fill:rgb(100%,100%,100%);fill-opacity:1;" d="M 13.886719 2.539062 C 13.886719 3.882812 10.800781 4.96875 7 4.96875 C 3.199219 4.96875 0.113281 3.882812 0.113281 2.539062 C 0.113281 1.199219 3.199219 0.109375 7 0.109375 C 10.800781 0.109375 13.886719 1.199219 13.886719 2.539062 "/>
<path style=" stroke:none;fill-rule:evenodd;fill:rgb(49.803922%,72.941176%,0%);fill-opacity:1;" d="M 12.476562 2.398438 C 12.476562 3.285156 10.023438 4.003906 7 4.003906 C 3.976562 4.003906 1.523438 3.285156 1.523438 2.398438 C 1.523438 1.515625 3.976562 0.796875 7 0.796875 C 10.023438 0.796875 12.476562 1.515625 12.476562 2.398438 "/>
<path style=" stroke:none;fill-rule:evenodd;fill:rgb(72.156863%,83.137255%,19.607843%);fill-opacity:1;" d="M 11.332031 3.378906 C 12.046875 3.109375 12.476562 2.769531 12.476562 2.402344 C 12.476562 1.515625 10.027344 0.800781 7 0.800781 C 3.972656 0.800781 1.523438 1.515625 1.523438 2.402344 C 1.523438 2.769531 1.953125 3.109375 2.671875 3.378906 C 3.671875 3 5.238281 2.757812 7 2.757812 C 8.761719 2.757812 10.328125 3 11.328125 3.378906 "/>
<path style=" stroke:none;fill-rule:evenodd;fill:rgb(100%,100%,100%);fill-opacity:1;" d="M 4.8125 11.507812 C 4.8125 11.910156 4.664062 12.21875 4.363281 12.441406 C 4.066406 12.660156 3.652344 12.773438 3.125 12.773438 C 2.675781 12.773438 2.300781 12.691406 2 12.535156 L 2 11.589844 C 2.347656 11.878906 2.730469 12.023438 3.148438 12.023438 C 3.351562 12.023438 3.507812 11.984375 3.617188 11.902344 C 3.726562 11.824219 3.78125 11.722656 3.78125 11.59375 C 3.78125 11.464844 3.730469 11.355469 3.625 11.257812 C 3.515625 11.164062 3.300781 11.042969 2.976562 10.894531 C 2.3125 10.589844 1.980469 10.175781 1.980469 9.652344 C 1.980469 9.273438 2.125 8.96875 2.417969 8.742188 C 2.710938 8.515625 3.089844 8.398438 3.570312 8.398438 C 3.992188 8.398438 4.34375 8.453125 4.625 8.5625 L 4.625 9.445312 C 4.332031 9.246094 3.996094 9.148438 3.625 9.148438 C 3.4375 9.148438 3.289062 9.1875 3.179688 9.265625 C 3.074219 9.335938 3.011719 9.453125 3.015625 9.574219 C 3.015625 9.710938 3.0625 9.820312 3.148438 9.90625 C 3.234375 9.988281 3.414062 10.097656 3.6875 10.222656 C 4.09375 10.410156 4.382812 10.597656 4.558594 10.792969 C 4.730469 10.984375 4.816406 11.226562 4.816406 11.511719 Z M 9.488281 10.550781 C 9.488281 11.050781 9.371094 11.480469 9.140625 11.847656 C 8.90625 12.214844 8.578125 12.46875 8.15625 12.617188 L 9.421875 13.753906 L 8.144531 13.753906 L 7.246094 12.769531 C 6.859375 12.757812 6.511719 12.660156 6.203125 12.472656 C 5.890625 12.285156 5.652344 12.035156 5.484375 11.714844 C 5.3125 11.390625 5.230469 11.03125 5.230469 10.636719 C 5.230469 10.199219 5.320312 9.808594 5.503906 9.464844 C 5.6875 9.121094 5.945312 8.855469 6.273438 8.671875 C 6.605469 8.488281 6.984375 8.394531 7.414062 8.394531 C 7.8125 8.394531 8.171875 8.484375 8.488281 8.660156 C 8.804688 8.839844 9.050781 9.09375 9.226562 9.425781 C 9.398438 9.757812 9.488281 10.132812 9.488281 10.550781 Z M 8.457031 10.605469 C 8.457031 10.175781 8.363281 9.835938 8.171875 9.589844 C 7.976562 9.339844 7.714844 9.214844 7.382812 9.214844 C 7.042969 9.214844 6.769531 9.339844 6.566406 9.589844 C 6.363281 9.839844 6.261719 10.171875 6.261719 10.589844 C 6.261719 11.003906 6.359375 11.332031 6.5625 11.578125 C 6.761719 11.828125 7.027344 11.949219 7.359375 11.949219 C 7.695312 11.949219 7.960938 11.832031 8.160156 11.589844 C 8.359375 11.351562 8.457031 11.023438 8.457031 10.609375 Z M 12.792969 12.699219 L 10.207031 12.699219 L 10.207031 8.464844 L 11.183594 8.464844 L 11.183594 11.925781 L 12.792969 11.925781 Z M 12.792969 12.699219 "/>
</g>
</svg>
